<svg version="1.2" xmlns="http://www.w3.org/2000/svg" viewBox="0 0 474 471" width="474" height="471">
	<title>New Project</title>
	<style>
		.s0 { opacity: 1;fill: #4e2614 } 
		.s1 { fill: #e29532 } 
		.s2 { fill: #b36216 } 
	</style>
	<g id="Background">
		<path id="Path 1" class="s0" d="m-252.5-437.7c-2.2 0.8-6 2.4-8.5 3.7-2.5 1.2-6 3.5-7.8 4.9l-3.4 2.6c-13.7-4.5-17.3-5-25.4-5-9.5 0-10.4 0.2-17.7 3.7-4.8 2.4-9.5 5.7-12.5 8.7-2.6 2.6-5.6 6.5-6.7 8.5-1.9 3.4-2.3 3.6-7 3.6-2.8 0-7.7 0.7-11 1.6-3.3 0.9-8.7 2.8-12 4.4-3.3 1.6-8 4.6-10.5 6.7-2.5 2.2-6.4 6.8-8.6 10.4-2.3 3.5-4.8 8.4-5.7 10.9-0.8 2.5-1.8 5.9-2.1 7.5-0.5 2.4-1.9 3.7-6.9 6.4-3.4 1.9-8.7 6-11.7 9.1-3 3.1-6.9 8.3-8.6 11.6-1.8 3.2-3.7 8.3-4.3 11.1-0.6 2.9-1.1 9-1 13.5 0.1 4.6 0.4 9.4 0.8 10.8 0.6 2.1 0 3.3-3.4 7-2.3 2.5-5.5 7.2-7.2 10.5-1.7 3.3-3.6 8.5-4.3 11.5-0.8 3.4-1.1 9.3-0.7 15.5 0.3 7.3 1.2 12 3.1 17.2l2.6 7.3c-3.2 10.5-4.3 17.6-4.6 22.5-0.4 6.5 0 13.1 1.5 23.5 1.2 8 3.3 18.6 4.7 23.5 1.4 4.9 4.4 12.5 6.5 16.7 2.1 4.3 5.4 9.3 7.3 11 3.1 2.9 3.5 4.2 4.5 11.3 0.6 4.4 1.8 10.5 2.7 13.5 0.9 3 3.1 8.4 5 12 1.8 3.6 5.7 9 8.6 12 2.9 3.1 8.2 7.3 11.8 9.5 3.6 2.1 8.3 4.1 10.4 4.4 2.2 0.3 4.1 1.3 4.4 2.1 0.2 0.8 1.8 4.4 3.4 8 1.6 3.6 4.4 8.3 6.2 10.5 1.8 2.2 5.9 5.8 9.2 8 3.3 2.3 9.8 5.3 14.9 7 7.1 2.3 10.7 2.9 17 2.9l8-0.1c4.3 6 7.6 9.3 10.2 11.2 2.7 1.9 8.4 4.9 12.8 6.6 5 2 10.6 3.3 15 3.6 3.9 0.3 9.9 0.1 13.5-0.4 3.6-0.6 9.3-2.3 12.8-3.9l6.3-2.9c8.8 4.3 13.4 5.9 15.9 6.5 2.5 0.5 7.3 1 10.7 1 3.5 0 9.6-0.6 13.5-1.4 4-0.7 9.3-2.2 11.8-3.3 2.5-1 6.6-3.4 9.2-5.1 2.7-1.8 6.3-5.2 8-7.7l3.3-4.5c10.3 1 16 0.8 20 0.1 4.3-0.8 9.7-2.7 13.9-4.9 3.8-2 8.8-5.3 11-7.3 2.3-2 5.3-5.4 6.8-7.5 1.6-2.1 3.9-7 5.2-10.9 1.9-5.5 2.9-7.1 4.7-7.6 1.3-0.3 4.4-1.6 6.9-2.9 2.5-1.2 6.3-3.5 8.5-5 2.2-1.5 5.3-4.1 6.8-5.6 1.6-1.6 4.7-5.6 6.9-8.9 2.1-3.3 4.8-8.9 5.9-12.5 1.1-3.6 2.4-9.8 2.9-13.8 1-6.9 1.2-7.4 6.3-12.5 3.3-3.2 6.7-8 9-12.7 2.1-4.1 4.4-10.6 5.3-14.5 1-4.3 1.8-13.9 2.1-25 0.5-15.4 0.2-19.4-1.5-28-1.1-5.5-2.7-11.7-3.6-13.8-1.5-3.5-1.5-4 0.8-9.5 1.3-3.1 3-8.6 3.7-12.2 0.7-3.9 1-9.5 0.6-14-0.3-4.1-1.5-10-2.5-13-1.1-3-2.7-7.1-3.7-9-1-1.9-3.5-5.5-5.7-8l-3.8-4.5c1.8-8.7 1.9-13.5 1.5-17-0.4-3.3-1.7-8.7-2.9-12-1.2-3.3-3.4-8.3-5-11-1.6-2.8-5.7-7.7-9-11-3.4-3.3-8.5-7.1-11.3-8.5-5-2.4-5.2-2.7-6.3-8-0.6-3-2.5-8.2-4.3-11.5-1.8-3.2-6.1-8.9-9.7-12.5-3.7-3.6-8.8-7.7-11.5-9.2-2.8-1.5-7.7-3.4-11-4.2-3.3-0.9-8.4-1.6-11.3-1.6-5 0-5.3-0.1-7.1-3.8-1-2-4.5-6.2-7.7-9.2-3.3-3-8.2-6.6-10.9-7.8-2.8-1.3-9.7-3.1-15.5-4-10.4-1.6-10.6-1.6-18.5 0.7l-8 2.4c-5.4-4-9.7-6.4-13-7.9-5-2.3-7.6-2.9-15.5-3.1-5.9-0.2-11 0.2-13.5 1zm347 11.9c-2.2 0.5-6.7 2.2-10 3.8-3.3 1.6-8.7 5.1-11.9 7.7-3.3 2.6-7.9 7.7-10.3 11.3-2.4 3.6-5.3 9-6.4 12-1.1 3-2.5 8-3 11-0.5 3-0.9 8.4-0.9 12 0 3.6 0.7 10.5 1.6 15.5 1.4 7.8 1.4 9.9 0.2 16-0.9 4.8-1.3 15.5-1.3 34 0 26.8 0 27.1 2.7 34.5 2.5 7.1 2.6 7.7 1.1 10.5-0.8 1.6-2.2 5.9-2.9 9.5-0.8 4-1.3 13.7-1.3 25.5-0.1 10.4 0.4 21.7 1 25 0.6 3.3 2.2 8.7 3.5 12 2.2 5.5 2.3 6.2 0.9 9-0.8 1.6-2.2 6.4-3.2 10.5-1.3 6-1.7 12.4-1.6 32 0 21.6 0.4 27.3 3.1 48 1.7 12.9 4.1 26.6 5.3 30.5 1.2 3.9 3 8.7 4 10.7 1.1 2.1 3.8 5.9 6.1 8.5 2.4 2.5 7 6.4 10.3 8.5 3.3 2.1 8.9 4.8 12.5 5.9 5.3 1.6 9.4 1.9 22.2 1.9 13.3 0 16.8-0.3 22-2.1 5.9-1.9 6.5-1.9 9.8-0.5 1.9 0.9 5.7 2 8.5 2.6 2.7 0.6 13.3 1 23.5 0.9 10.2 0 21.4-0.5 25-1 3.6-0.6 9-2.1 12-3.5l5.5-2.6c4.6 3.2 8 4.6 10.5 5.2 2.5 0.6 11.9 1.3 21 1.7 10.8 0.4 19.4 0.2 25-0.6 4.7-0.7 10.4-2.1 12.7-3.2 4.2-1.9 4.4-1.9 8.5 0 2.4 1.1 7.4 2.5 11.3 3.2 4.5 0.7 11.7 1 20 0.6 8.8-0.3 14.3-1.1 17-2.2 3.3-1.4 4.4-1.5 6.5-0.4 1.4 0.7 7.8 1.4 14.5 1.7 8.6 0.3 14.1-0.1 19.5-1.2 4.1-0.9 10.4-3 14-4.8 3.6-1.7 8.7-5.2 11.4-7.7 2.6-2.5 7.4-8.4 10.5-13.1 3.2-4.7 7.1-12.1 8.8-16.5 1.7-4.4 3.6-10.9 4.2-14.5 0.7-4.5 0.9-45.5 0.6-134-0.4-89.2-0.8-128.7-1.6-131.5-0.6-2.2-4.7-11.1-9-19.8-4.4-8.6-9-19.2-10.4-23.5-1.3-4.2-4.2-10.4-6.4-13.7-2.1-3.3-6.5-8.5-9.8-11.5-3.2-3-8.6-6.9-11.8-8.7-3.3-1.7-8.7-3.9-12-4.7-3.3-0.9-9.6-1.6-14-1.6-4.7 0-11.5 0.8-16.5 2.1-8 1.9-8.7 2-13 0.4-2.5-0.9-8.1-1.9-12.5-2.2-5.6-0.4-10.2-0.1-15.5 1-4.1 0.9-9.6 2.7-12.2 3.9l-4.7 2.3-12.5-6h-48.1l-12 5.7c-8.5-3.9-13-5.5-15.5-6.1-2.8-0.6-13.6-0.8-28-0.5-12.9 0.3-24.9 0.7-26.5 0.9-1.6 0.2-4.7 1.6-6.8 3-3.4 2.3-3.9 2.4-6.5 1.1-1.5-0.8-5.8-2.3-9.7-3.5-5.1-1.6-9.4-2.1-16-2-5 0-10.8 0.5-13 1.1zm-349.5 460.6c-3 1-7.8 3.1-10.5 4.7-2.8 1.6-7 4.7-9.3 6.9-2.4 2.3-5.6 6.1-7.2 8.6-1.6 2.5-3.4 6.5-4.1 9-0.7 2.5-1.3 4.6-1.3 4.8-0.1 0.1-2.6-1.4-5.6-3.3-3-2-7.8-4.3-10.5-5.2-2.8-0.8-8.1-1.7-12-2-4-0.3-9.6 0-13 0.7-3.3 0.7-8.9 2.8-12.5 4.6-3.9 2-8.7 5.6-12.1 9.1-3.7 3.7-7 8.6-9.5 13.8-3.8 7.9-3.9 8.2-3.9 19.5v11.5c-17.6 0-18.6 0.2-26.1 3.9-5.6 2.8-9.8 5.8-14.4 10.5-3.6 3.6-7.7 8.8-9.2 11.6-1.5 2.7-3.4 7.7-4.2 11-0.9 3.3-1.6 8.7-1.6 12 0 3.3 0.9 14.1 2 24 1.1 9.9 2.5 20.2 3.1 23 0.9 4.5 0.7 5.6-1.5 10.5-1.4 3-3.5 9.1-4.6 13.5-1.1 4.4-2 10.9-2 14.5 0 3.6 0.7 11.9 1.5 18.5 0.9 6.6 2 18.6 2.5 26.7 0.8 12.3 1.5 16 3.8 22 1.5 4 4.6 10 6.7 13.2 2.2 3.3 6 7.7 8.5 9.8 2.5 2.1 8.2 5.7 12.7 8l8.1 4.3c0.8 10.8 2 16.9 3.1 20.5 1.1 3.6 4.2 9.9 6.9 14 2.6 4.1 7.3 9.7 10.3 12.3 3 2.6 8.5 6.3 12.4 8.2 3.9 1.8 9.4 3.8 12.2 4.4 2.9 0.6 8.2 1.1 11.8 1.1 3.6 0 8.9-0.5 11.7-1.1 2.9-0.6 8.7-2.6 12.8-4.5 4.1-1.9 7.5-3.3 7.5-3.1 0.1 0.1 0.6 1.3 1.3 2.7 0.7 1.4 3.3 5.1 5.7 8.2 2.5 3.2 7.3 7.7 10.7 10 3.5 2.3 9.1 5.4 12.5 7 3.5 1.5 9.3 3.3 13 3.9 3.8 0.6 9.3 0.8 12.3 0.4 3-0.3 7.7-1.3 10.5-2.2 2.7-0.8 7.9-3.1 11.5-4.9 3.7-1.9 9.2-6 12.8-9.6 3.4-3.5 7.6-8.9 9.2-12.1l3-5.7c5.4 4.6 8.7 6.9 10.7 7.9 2.1 1 6.5 2.7 9.8 3.6 4.4 1.3 7.9 1.6 13 1.2 3.9-0.3 9.2-1.1 12-1.7 2.7-0.6 7.7-2.4 11-4 3.3-1.6 8.7-5.1 12-7.7 3.3-2.7 7.7-7.3 9.7-10.3 2.1-3 4.9-8.4 6.3-12 1.4-3.7 3-10.6 3.6-16 0.6-5.2 1.2-10 1.4-10.5 0.1-0.5 2.4-1.4 5.1-1.9 2.7-0.5 8.3-2.6 12.4-4.6 4.1-2.1 9.8-6 12.6-8.6 2.8-2.7 6.5-7.2 8.3-9.9 1.7-2.8 4.1-7.9 5.2-11.5 1.1-3.6 2.4-11.9 2.8-18.5 0.5-6.6 0.7-18.1 0.5-25.5-0.3-7.4-1.1-18.9-1.9-25.5-0.8-6.6-2.4-14.8-3.5-18.3l-2-6.2c3.7-6.6 5.4-11.2 6-14.5 0.7-3.6 1-8.6 0.6-12.5-0.4-3.6-2-14.4-3.6-24-1.6-9.6-3.6-19.3-4.3-21.5-0.8-2.2-2.7-6.5-4.2-9.5-1.6-3-5.3-8-8.4-11-3.1-3.1-7.6-6.7-10.1-8.1-2.5-1.4-6.8-3.3-9.5-4.2-2.9-1-8-1.7-12.3-1.7h-7.2c0.6-8.9 0.3-14.2-0.1-17.5-0.5-3.3-2.6-9.4-4.6-13.5-2.5-5.1-5.6-9.5-9.7-13.5-3.7-3.7-8.7-7.3-12.6-9.2-3.6-1.8-8.5-3.6-11-4.2-2.5-0.6-7.1-1.1-10.3-1.1-3.1 0-8.1 0.5-11 1.1-2.8 0.6-7.5 2.3-10.2 3.7-2.8 1.3-6.6 3.7-8.5 5.3l-3.5 2.7c-1.1-5.6-2.6-9.6-3.9-12.3-1.4-2.8-4.2-7-6.3-9.4-2.1-2.5-6.5-6.2-9.8-8.3-3.3-2.2-8.9-4.8-12.5-5.9-4.2-1.2-9.2-1.9-14-1.9-4.1 0.1-10 0.9-13 1.8zm570 20.8c-1.9 0.2-6.6 0.9-10.5 1.5-3.9 0.6-10.4 2.3-14.5 3.7-4.1 1.3-9.8 3.6-12.5 5-2.8 1.4-8.1 4.6-12 7.2-3.9 2.6-9.9 7.7-13.5 11.3-3.6 3.6-8.5 9.3-11 12.6-2.5 3.3-4.7 6-5 6-0.3 0-2.3-2.5-4.5-5.6-2.2-3-6.9-8.4-10.5-11.9-3.6-3.5-9-8.3-12-10.5-3-2.3-8.9-5.8-13-7.9-4.1-2.1-11.1-4.9-15.5-6.3-4.4-1.4-11.8-3.1-16.5-3.8-5.2-0.7-12.4-0.9-18.5-0.6-5.5 0.4-14.3 1.7-19.5 3-5.2 1.4-13.3 4.1-18 6.1-4.7 2-12.1 6.1-16.5 9-4.4 3-11.1 8.5-14.9 12.2-3.8 3.8-9.2 10-11.9 13.9-2.7 3.8-6.2 9.7-7.9 13-1.7 3.3-4.5 10.5-6.3 16-1.9 5.5-4.1 15.4-5 22-1.4 9.4-1.6 15.8-1.1 29.5 0.3 9.6 1.3 23.1 2.1 30 0.9 6.9 2.7 17.5 4 23.5 1.4 6 4.1 16 6.1 22 1.9 6 5.9 16 8.8 22 2.9 6 7.9 15.3 11.1 20.5 3.3 5.2 9.7 14.2 14.4 20 4.6 5.8 13.7 16.3 20.1 23.5 6.4 7.1 16.8 17.8 23.1 23.6 6.3 5.8 17 15.2 23.9 21 6.9 5.8 16.7 13.9 21.9 18 5.2 4.1 14 10.6 19.5 14.6 5.6 3.9 12.3 8.6 15.1 10.2 2.7 1.7 7.7 4 11 5.2 4.9 1.8 7.7 2.1 14.6 1.8 7.9-0.4 9.4-0.8 17-4.8 4.6-2.4 12.9-7.3 18.4-10.9 5.5-3.5 17-11.8 25.5-18.3 8.5-6.5 20-15.8 25.6-20.6 5.6-4.8 13.9-11.8 18.5-15.4 4.6-3.6 14.9-13.4 22.9-21.8 8-8.4 18.3-20.3 22.9-26.4 4.7-6.2 10.3-13.5 12.6-16.2 2.2-2.8 7-9.5 10.7-15 3.6-5.5 8.7-14.2 11.2-19.3 2.5-5 5.9-13.1 7.5-18 1.6-4.8 3.7-12.3 4.6-16.7 0.9-4.4 1.9-12.7 2.2-18.5 0.3-5.8 0-15.5-0.6-21.5-0.6-6-2.3-15.7-3.8-21.5-1.4-5.8-4.3-14.8-6.5-20-2.1-5.2-5.3-14.2-6.9-20-1.7-5.8-5.3-14.8-7.9-20-2.7-5.2-7.8-13.1-11.3-17.5-3.5-4.4-10-10.9-14.4-14.5-4.5-3.6-11.6-8.5-15.9-11-4.4-2.5-12.2-5.9-17.4-7.7-5.2-1.8-14-3.9-19.5-4.8-5.5-0.8-11.6-1.4-13.5-1.3-1.9 0.1-5.1 0.3-7 0.4z"/>
		<path id="Path 4" fill-rule="evenodd" class="s1" d="m-241.6-430.9c4.2-0.1 8.2 0.2 8.8 0.6 0.7 0.4 1.7 0.8 2.3 0.9 0.6 0 2.5 0.7 4.3 1.5 1.7 0.8 3.2 1.7 3.2 2.1 0 0.5 0.4 0.6 1 0.3 0.6-0.3 1.4 0.4 2 1.5 0.6 1.1 2.8 2.9 5 4 3.3 1.6 4.3 1.8 5.5 0.7 0.9-0.6 1.6-0.9 1.5-0.5 0 0.5 0.6 0.5 1.2 0.1 0.7-0.4 1.5-0.8 1.8-0.9 0.3 0 1.9-0.6 3.5-1.3 1.6-0.7 5.8-1.5 9.2-1.7 3.5-0.2 6.9-0.1 7.5 0.3 0.7 0.4 2 0.8 2.8 0.9 0.8 0.2 2.2 0.4 3 0.7 0.8 0.2 2.7 0.7 4.2 1 1.6 0.4 2.8 1.1 2.8 1.7 0 0.5 0.4 0.8 1 0.5 0.6-0.3 1-0.1 1 0.5 0 0.5 0.7 1 1.5 1 0.8 0 1.5 0.4 1.5 1 0 0.5 0.7 1 1.5 1 0.8 0 3.1 1.9 5 4.2 1.9 2.4 3.6 5 3.8 5.8 0.1 0.8 1 2.6 2 4 1.6 2.3 2.9 2.6 13 3.7 6.8 0.8 11.5 1.8 11.9 2.5 0.4 0.7 0.8 1 0.8 0.5 0-0.4 1.8 0.2 4 1.3 2.2 1.1 6.7 4.7 10 8 3.6 3.6 7.2 8.4 9 12.2 1.6 3.5 3.2 8.3 3.6 10.8 0.3 2.5 0.6 5 0.7 5.7 0.1 0.7 3.1 2.5 6.6 4 3.5 1.5 6.6 3.4 7 4.1 0.3 0.8 0.9 1.3 1.3 1.3 0.5-0.1 2.6 1.6 4.8 3.6 2.2 2.1 4 4.1 4 4.5 0 0.5 0.9 1.7 2 2.8 1.1 1.1 1.8 2.4 1.5 3-0.3 0.5-0.1 1 0.5 1 0.6 0 1.7 1.9 2.6 4.2 0.9 2.4 1.4 4.9 1 5.5-0.3 0.7-0.3 1.5 0.1 1.7 0.5 0.2 0.7 3.7 0.5 7.8-0.1 4-0.3 8-0.3 8.8-0.1 0.8-0.7 2.1-1.3 2.8-0.7 0.8-0.7 1.3-0.1 1.3 0.6-0.1 0.3 0.4-0.5 0.9-1.3 0.9-1.3 1.1 0 2 0.8 0.5 1.1 1 0.5 0.9-0.6 0 1.5 2.4 4.6 5.3 3.1 2.9 5.8 6 6 6.8 0.2 0.8 1 2 1.6 2.7 0.7 0.7 1.1 1.7 0.8 2.3-0.3 0.5-0.1 1 0.5 1 0.6 0 0.8 0.4 0.5 1-0.3 0.5-0.1 1.2 0.5 1.5 0.6 0.3 0.8 1.4 0.5 2.5-0.3 1.1-0.1 2 0.5 2 0.6 0 0.9 0.8 0.8 1.7-0.1 1 0.2 4 0.6 6.8 0.5 3 0.5 5.6-0.1 6.5-0.6 0.8-0.8 2.5-0.7 3.7 0.2 1.3 0 2.3-0.6 2.3-0.6 0-0.8 0.7-0.5 1.5 0.3 0.8-0.2 2.3-1.1 3.2-0.8 1-1.3 2.4-1 3 0.3 0.7 0.2 1.3-0.4 1.3-0.6 0-0.8 0.4-0.5 1 0.3 0.5-0.3 1.8-1.3 2.7-0.9 0.9-1.8 2.9-2 4.5-0.1 1.8 0.3 3 1.3 3.3 0.8 0.3 1.3 0.9 1 1.5-0.3 0.5-0.1 1 0.5 1 0.6 0 0.8 0.4 0.5 1-0.3 0.5-0.1 1.2 0.5 1.5 0.6 0.3 0.8 1.1 0.5 1.7-0.3 0.7 0.1 3.5 1 6.3 1.2 3.5 1.5 6.8 1.1 11.2-0.3 3.5-1 6.3-1.6 6.3-0.6 0-0.8 0.9-0.5 2 0.3 1.1 0.1 2-0.5 2-0.6 0-1 1.1-1 2.5 0 1.4-0.7 3.2-1.5 4-0.8 0.8-1.5 1.8-1.5 2.2 0 0.5-2.2 2.9-5 5.5-2.7 2.7-5.3 4.8-5.8 4.8-0.4 0-1.9 1.5-3.4 3.3-2.3 2.6-2.5 3.5-1.6 5.2 0.6 1.2 0.8 4.3 0.4 8-0.3 3.3-0.6 6.8-0.6 7.7 0 1-0.4 2-1 2.3-0.6 0.3-0.8 0.9-0.5 1.5 0.3 0.5 0.2 1.8-0.2 2.7-0.3 1-0.7 2.5-0.9 3.3-0.2 0.8-0.8 1.6-1.4 1.7-0.5 0.2-0.8 0.7-0.5 1.3 0.3 0.5-0.5 1.9-1.8 3-1.2 1.1-1.9 2-1.5 2 0.5 0-1.1 2-3.5 4.4-2.3 2.5-4.5 4.3-5 4-0.4-0.2-0.7 0-0.7 0.6 0 0.5-1 1.3-2.3 1.6-1.2 0.4-2.4 0.6-2.7 0.5-0.3-0.2-0.7 0.2-1 0.8-0.3 0.6-2.5 1.3-5 1.6-2.5 0.4-5 0.7-5.7 0.8-0.6 0.1-1.9 3.1-2.8 6.7-0.8 3.6-2.1 6.8-2.8 7.2-0.7 0.4-0.9 0.8-0.5 0.8 0.5 0 0.1 1.3-0.7 3-0.8 1.6-1.9 3-2.5 3-0.6 0-0.8 0.4-0.5 1 0.3 0.5-0.9 1.9-2.5 3-1.6 1.1-2.8 2.4-2.5 3 0.3 0.5 0.1 1-0.5 1-0.6 0-2.7 1.6-4.8 3.5-2 2-3.8 3.3-4 3-0.1-0.3-0.9 0.2-1.7 1-0.8 0.8-1.9 1.3-2.5 1-0.6-0.3-1-0.1-1 0.5 0 0.5-1.7 1.5-3.8 2.1-2 0.7-6 1.4-8.7 1.6-2.8 0.3-5.4 0.4-6 0.4-0.6 0-2.6-0.2-4.5-0.5-1.9-0.3-3.5-0.6-3.5-0.7 0-0.1-1-0.2-2.3-0.3-1.3 0-3.1 0.7-4 1.7-0.9 1-2.8 2.9-4.2 4.3-1.4 1.4-2.1 2.4-1.5 2.4 0.6 0-0.4 1.3-2 3-1.6 1.7-3.3 3-3.8 3-0.4 0-1.6 0.9-2.7 2-1.1 1.1-2.7 2-3.5 2-0.8 0-1.5 0.4-1.5 1 0 0.5-0.4 0.8-1 0.5-0.6-0.3-1.1-0.1-1.3 0.5-0.1 0.5-1.3 1.1-2.7 1.4-1.4 0.2-2.6 0.5-2.8 0.5-0.1 0.1-0.5 0.2-1 0.4-0.4 0.2-2.5 0.7-4.7 1.1-2.2 0.5-6.9 0.4-10.5-0.2-3.6-0.5-7.6-1.5-9-2.1-1.4-0.6-3.4-1.7-4.4-2.3-1.1-0.7-2.9-2.1-4-3.2-1.6-1.4-2.9-1.7-5.1-1.2-1.6 0.4-3.3 1.3-3.8 2.1-0.4 0.8-1.1 1.3-1.7 1-0.6-0.3-1.2 0.2-1.5 1-0.3 0.8-3.5 2.4-7.3 3.4-4.2 1.2-8.9 1.9-12.7 1.7-3.3-0.2-7.5-0.6-9.3-1-1.7-0.3-3.8-0.9-4.5-1.3-0.6-0.4-2.1-0.9-3.2-1-1.1-0.2-2.1-0.8-2.3-1.3-0.1-0.6-0.6-0.8-1.2-0.5-0.6 0.3-2-0.6-3.3-2-1.2-1.3-2.6-2.5-3.2-2.4-0.6 0-3-2.2-5.5-4.9-2.5-2.8-4.4-5.4-4.2-5.8 0.2-0.5-0.9-1.6-2.5-2.5-2.1-1.2-3.1-1.4-4.2-0.5-0.8 0.6-3.3 1.2-5.5 1.4-2.3 0.1-7 0.2-10.6 0.2-3.7 0-7.1-0.6-7.8-1.3-0.7-0.7-1.2-0.8-1.2-0.2 0 0.5-0.5 0.4-1.2-0.2-0.7-0.7-1.6-1-2.1-0.5-0.4 0.4-0.7 0.1-0.7-0.6 0-0.6-0.9-1.2-2-1.2-1.1 0-2-0.5-2-1 0-0.6-0.4-0.8-1-0.5-0.6 0.3-2.4-0.9-4-2.5-1.6-1.6-3-2.7-3-2.3 0 0.5-1.5-0.8-3.4-2.7-2-1.9-3.3-3.8-3.1-4.3 0.3-0.4-0.2-0.9-1-1.2-0.8-0.3-1.5-1.2-1.5-2 0-0.8-0.3-1.5-0.8-1.5-0.4 0.1-1.7-2.2-3-5-1.2-2.7-2-5.5-1.7-6 0.3-0.6 0.1-2.1-0.5-3.5-0.6-1.4-2.4-3.2-4-4-1.6-0.8-3.8-1.2-4.8-0.9-0.9 0.3-2.4 0.3-3.2-0.1-0.8-0.5-2.2-0.9-3-1.1-0.8-0.2-1.6-0.8-1.8-1.4-0.1-0.5-0.6-0.8-1.2-0.5-0.6 0.3-1.7-0.2-2.5-1-0.8-0.8-1.5-1.2-1.5-0.8 0 0.5-2.3-1.7-5.2-4.7-2.8-3-6.2-7.4-7.5-9.8-1.3-2.3-2.1-4.7-1.8-5.2 0.3-0.6 0.1-1.1-0.4-1.3-0.6-0.1-1.3-2.5-1.8-5.2-0.4-2.8-0.7-8.7-0.5-13.3 0.2-7.5 0-8.2-1.8-8.7-1.1-0.3-2-1-2-1.5 0-0.6-0.4-0.8-1-0.5-0.6 0.3-1 0-1-0.5 0-0.6-0.6-1-1.3-1-0.6 0-2.7-1.5-4.5-3.3-1.8-1.7-3.2-3.8-3.2-4.5 0-0.6-0.4-1.2-1-1.2-0.6 0-1.2-1.1-1.5-2.5-0.3-1.4-0.8-2.5-1.3-2.5-0.4 0-1.2-1.7-1.9-3.7-0.7-2.1-1.6-5.8-2-8.3-0.3-2.5-0.7-6.1-0.7-8 0-1.9 0.3-5.1 0.7-7 0.4-1.9 1-4.2 1.2-5 0.2-0.8 0.4-1.5 0.5-1.5 0.1 0 0.2-1 0.3-2.3 0.1-1.2 0.7-2.6 1.2-3 0.6-0.4 1.2-2.4 1.3-4.5 0.1-2-0.1-4.3-0.5-5-0.4-0.6-0.8-1.4-0.9-1.7 0-0.3-0.9-2.3-1.8-4.5-1-2.2-1.9-5.4-2-7-0.1-1.6-0.5-3.6-0.9-4.3-0.4-0.6-0.5-5-0.2-9.7 0.3-4.7 1.2-10.4 2.2-12.8 0.9-2.3 2.8-5.8 4.2-7.7 1.4-1.9 4.6-5.5 7.1-7.9 4.3-4.1 4.5-4.5 3.6-8-0.5-2-0.9-8.8-1-15.1-0.1-9.6 0.2-12.3 1.9-15.8 1.1-2.4 2.3-4.2 2.7-4.2 0.5 0 0.6-0.5 0.3-1-0.3-0.6 0.3-1.4 1.2-2 1-0.5 1.4-0.9 0.8-0.9-0.6 0 1.1-2.1 3.7-4.6 2.7-2.5 5.1-4.5 5.4-4.5 0.3 0 1.2-0.7 2-1.5 0.8-0.8 2.8-1.8 4.6-2.3 1.7-0.4 4.2-1.7 5.5-3 1.3-1.3 2.3-3.3 2.3-5 0-1.5 0.3-3.1 0.7-3.5 0.5-0.5 0.9-2.1 1-3.5 0.2-1.5 0.8-3 1.5-3.4 0.7-0.4 1-0.8 0.5-0.8-0.4 0 0.1-1.7 1.2-3.8 1-2 2.7-4 3.7-4.5 1-0.4 1.6-1.1 1.1-1.5-0.4-0.4 0.5-1.9 1.9-3.5 1.5-1.5 3.1-2.7 3.8-2.7 0.6 0 2.2-1.2 3.6-2.5 1.4-1.4 2.6-2.3 2.7-2 0.2 0.3 1-0.2 1.8-1 0.8-0.8 1.9-1.3 2.5-1 0.6 0.3 1 0 1-0.5 0-0.6 1.2-1.2 2.7-1.5 1.6-0.3 3.9-0.8 5.3-1.1 1.4-0.3 5.9-0.9 17.5-1.9l3.3-5c1.8-2.8 4.8-6.6 6.8-8.5 1.9-1.9 3.5-3.1 3.5-2.5 0 0.5 0.4 0.2 0.9-0.8 0.6-0.9 1.4-1.5 2-1.2 0.6 0.3 1 0 1-0.5 0-0.6 0.4-0.8 1-0.5 0.6 0.3 1 0 1-0.5 0-0.6 0.4-0.8 1-0.5 0.6 0.3 1.1 0 1.2-0.5 0.2-0.6 1.7-1.3 3.3-1.5 1.6-0.2 3-0.5 3-0.6 0-0.1 3.7-0.3 8.2-0.5 4.9-0.3 8.5 0 8.8 0.6 0.3 0.5 1.2 0.8 2 0.5 0.8-0.3 1.5-0.1 1.5 0.5 0 0.5 0.7 0.8 1.5 0.5 0.8-0.3 1.5-0.1 1.5 0.5 0 0.5 0.3 0.8 0.7 0.6 0.5-0.2 1.9 0.1 3.3 0.7 1.4 0.5 3.3 1.2 4.2 1.3 1 0.2 3-0.8 4.4-2.4 1.4-1.5 2.3-2 1.9-1.2-0.4 0.8 0.4 0.3 1.7-1.2 1.3-1.5 2.9-2.8 3.5-2.8 0.7 0 1.6-0.4 2-0.9 0.4-0.5 1.2-1.1 1.8-1.3 0.5-0.1 1.3-0.7 1.7-1.2 0.3-0.5 1.8-0.8 3.2-0.7 1.4 0 2.6-0.3 2.5-0.8-0.1-0.5 3.3-0.9 7.5-1zm349 12.4c4.5 0.1 8.6 0.4 9.1 0.7 0.5 0.3 2.4 0.6 4 0.6 1.6 0 3.1 0.5 3.2 1.1 0.2 0.6 0.8 0.9 1.3 0.6 0.5-0.3 1.7 0.2 2.5 1 0.8 0.8 1.7 1.5 2 1.5 0.3 0 1.5 0.8 2.7 1.8 1.7 1.3 3.1 1.6 5.3 1.1 1.6-0.4 3.8-1.9 4.7-3.3 1-1.4 2.3-2.4 2.8-2.1 0.5 0.3 1.1 0 1.2-0.5 0.2-0.7 7.3-1.2 18.8-1.5 10.2-0.3 21-0.6 24-0.7 3-0.1 7.5 0.1 10 0.6 2.5 0.4 4.6 1.2 4.7 1.7 0.2 0.5 0.8 0.7 1.3 0.4 0.5-0.3 1-0.1 1 0.5 0 0.5 0.5 0.8 1 0.5 0.5-0.3 1.2 0.2 1.5 1 0.3 0.8 1.2 1.5 2 1.5 0.8 0 1.5 0.3 1.5 0.7 0 0.5 1.4 1.3 3.2 1.8 2.7 0.9 3.6 0.7 5.3-0.8 1.1-1 2.7-2.4 3.5-3.2 0.8-0.8 2.6-1.6 4-1.7 1.4-0.1 2.8-0.7 3.2-1.3 0.5-0.6 8.3-1 22.1-1 15.6 0 21.8 0.3 22.8 1.2 0.8 0.7 1.8 1 2.2 0.5 0.4-0.4 0.7-0.1 0.7 0.5 0 0.7 0.5 1.1 1 0.8 0.5-0.3 1.9 0.5 3 1.7 1.1 1.3 2 2 2 1.5 0-0.4 0.7 0 1.5 0.8 0.8 0.8 2 1.5 2.5 1.5 0.5 0 1-0.5 1-1 0-0.6 1.4-1.2 3-1.5 1.6-0.3 3-0.8 3-1.3-0.1-0.4 1.9-1.5 4.2-2.4 2.4-1 6.1-2.1 8.3-2.5 2.2-0.3 6.5-0.7 9.5-0.7 3 0 7.3 0.4 9.5 0.8 2.2 0.4 4.2 1.1 4.5 1.5 0.3 0.3 1.4 0.8 2.5 0.9 1.1 0.2 3.7 0.5 5.7 0.6 2 0.2 3.7-0.1 3.8-0.6 0-0.4 0.5-0.5 1.1-0.1 0.6 0.5 1.4 0.3 1.8-0.4 0.3-0.7 2-1.3 3.6-1.5 1.6-0.1 3.5-0.4 4-0.7 0.5-0.3 4.6-0.7 9-0.7 4.4-0.1 8.6 0.2 9.2 0.7 0.7 0.5 1.6 0.7 2 0.5 0.5-0.3 2 0.2 3.5 1 1.6 0.7 3 1.1 3.3 0.6 0.3-0.4 0.5-0.1 0.5 0.5 0 0.7 0.5 1.1 1 0.8 0.5-0.3 1-0.1 1 0.5 0 0.5 0.5 0.8 1 0.5 0.5-0.3 1-0.1 1 0.5 0 0.5 0.3 0.8 0.7 0.5 0.5-0.3 2 0.6 3.5 2 1.6 1.4 3.7 2.9 4.8 3.5 1.2 0.6 1.7 1.5 1.2 2.2q-0.7 1.3 0.5 0.5c0.8-0.4 1.8 0 2.5 0.8 0.7 0.9 0.8 1.6 0.3 1.5-0.5 0 0 0.7 1.2 1.7 1.2 1 2.2 2.4 2.3 3 0 0.7 0.5 1.3 1 1.3 0.5 0 0.8 0.4 0.5 1-0.3 0.5 0 1 0.7 1 0.6 0 0.8 0.2 0.5 0.5-0.4 0.3 0 1.2 0.8 2 0.8 0.8 1.3 1.9 1 2.5-0.3 0.5 0 1 0.7 1 0.6 0 0.8 0.3 0.5 0.7-0.4 0.5-0.3 1.2 0.3 1.8 0.5 0.5 1.2 2.8 1.7 5 0.4 2.2 0.7 8.3 0.8 13.6 0 6.3-0.4 10.1-1.2 11-0.7 0.8-1 1.7-0.5 2.1 0.4 0.4 0 1.5-0.8 2.3-0.8 0.9-1.2 1.6-0.8 1.5 0.5 0-0.3 2.2-1.7 5-1.4 2.7-2.5 6.1-2.5 7.5 0 1.4 0.7 3.7 1.5 5.2 0.8 1.6 1.2 3.1 0.8 3.5-0.3 0.5-0.1 0.8 0.5 0.8 0.7 0 1 0.4 0.7 1-0.3 0.5 0 1.2 0.5 1.5 0.5 0.3 0.8 0.9 0.5 1.5-0.3 0.5-0.2 1.2 0.2 1.4 0.5 0.2 0.7 9.8 0.6 21.3-0.1 11.4-0.4 21.7-0.6 22.8-0.3 1.1-0.6 2.1-0.6 2.2-0.1 0.2-0.2 0.6-0.4 1-0.1 0.5-0.8 1.7-1.5 2.8-0.6 1.1-0.8 2.3-0.4 2.8 0.4 0.4 0.1 0.7-0.6 0.7-0.6 0-1 0.3-0.7 0.7 0.2 0.5-0.4 1.9-1.5 3.3-1.2 1.4-2.1 3.4-2.1 4.5 0 1.1 0.7 2.6 1.6 3.2 0.8 0.7 1.3 1.7 1 2.3-0.3 0.5 0 1 0.5 1 0.5 0 1.5 0.9 2 2 0.5 1.1 1.2 3 1.4 4.2 0.3 1.3 0.5 2.3 0.6 2.3 0.1 0 0.4 0.9 0.6 2 0.3 1.1 0.8 3.8 1.1 6 0.3 2.2 0.6 8.5 0.7 14 0.1 5.5-0.1 14.7-0.5 20.5-0.4 5.8-1.3 11.8-2 13.5-0.7 1.6-1.2 3.3-1.1 3.7 0.1 0.5-0.3 0.8-0.8 0.8-0.5 0-0.9 0.4-0.8 0.8 0.2 0.4-0.8 2.9-2.2 5.4-2.4 4.6-2.5 4.8-0.8 7.8 1 1.6 1.6 3 1.3 3-0.3 0 0.2 0.7 1 1.5 0.8 0.8 1.3 1.9 1 2.5-0.3 0.5 0 1 0.5 1 0.5 0 1.2 0.8 1.5 1.7 0.3 1 0.8 2.9 1.1 4.3 0.3 1.4 1 5.9 1.5 10 0.5 4.1 0.7 12.9 0.5 19.5-0.3 6.6-1 13.8-1.6 16-0.6 2.2-1.4 4.7-1.7 5.5-0.4 0.8-0.8 1.8-1 2.2-0.1 0.5-0.3 1-0.3 1.3 0 0.3-0.1 0.8-0.3 1.2-0.2 0.5-1.3 2.9-2.5 5.5-1.2 2.7-2.7 4.8-3.2 4.8-0.5 0-1 0.4-1 1 0 0.5-2.7 3.7-6 7-3.3 3.3-6.7 6-7.5 6-0.8 0-1.5 0.6-1.5 1.2 0 0.7-0.3 1-0.7 0.5-0.5-0.4-1.8 0-3.1 0.8-1.2 0.8-2.7 1.3-3.2 1-0.5-0.3-1-0.1-1 0.5 0 0.5-0.5 0.8-1 0.5-0.5-0.3-1.2-0.1-1.5 0.5-0.3 0.5-1.4 0.8-2.5 0.5-1.1-0.3-2.2-0.1-2.5 0.5-0.3 0.5-2.5 1-5 1-2.5 0-4.7-0.5-5-1-0.3-0.6-1.4-0.8-2.5-0.5-1.1 0.3-2 0-2-0.5 0-0.6-0.6-0.8-1.3-0.6-0.6 0.2-2.4-0.3-4-1-2.4-1.2-3.3-1.1-8.1 0.8-4.7 2-6.9 2.3-18.2 2.1-7.1 0-14-0.3-15.4-0.5-1.4-0.2-3.2-0.8-4-1.3-0.8-0.5-2.2-1-3-1.2-0.8-0.1-1.6-0.7-1.8-1.3-0.1-0.5-0.7-0.8-1.2-0.5-0.5 0.3-1.2-0.1-1.5-0.8-0.3-0.6-2.1-1.3-4-1.5-2.3-0.1-3.5 0.2-3.5 1 0 0.7-0.2 1-0.5 0.5-0.3-0.4-1.4 0.2-2.5 1.3-1.1 1.1-2.5 1.8-3 1.5-0.5-0.3-1 0.1-1 0.7 0 0.7-0.3 1-0.7 0.6-0.5-0.5-1.4-0.3-2.1 0.2-0.6 0.6-1.9 0.8-2.7 0.5-0.8-0.3-1.7-0.2-1.9 0.2-0.2 0.5-8.2 0.7-17.8 0.6-9.5-0.1-18.3-0.2-19.6-0.3-1.2 0-2.4-0.5-2.7-1-0.3-0.6-1-0.8-1.5-0.5-0.5 0.3-3-0.4-5.5-1.5-2.5-1.1-4.5-2.5-4.5-3 0-0.6-1.2-1.3-2.8-1.6-1.8-0.4-3.9 0.2-6.2 1.5-1.9 1.2-4.3 2.1-5.3 2.1-0.9 0-1.7 0.3-1.7 0.7 0 0.5-2.1 1.5-4.7 2.3-3.6 1.1-9.9 1.5-25.8 1.5-17.5 0-21.8-0.3-25.8-1.8-2.6-0.9-4.7-2.3-4.7-3 0-0.6-0.3-0.9-0.7-0.5-0.5 0.4-2.2 0-3.8-1-1.6-0.9-3.3-2.2-3.7-2.7-0.5-0.6-0.8-0.4-0.8 0.5 0 0.8-0.3 1.2-0.7 0.8-0.5-0.4-1.9 0.1-3.3 1.2-1.4 1.1-2.8 1.6-3.3 1.2-0.4-0.4-0.7-0.1-0.7 0.5 0 0.7-0.5 1.1-1 0.8-0.5-0.3-1-0.1-1 0.5 0 0.5-0.3 0.9-0.8 0.8-0.4-0.1-2.1 0.5-3.7 1.2-1.7 0.7-6.8 1.3-11.5 1.3-4.7 0-10.4-0.3-12.8-0.7-2.3-0.3-5.2-1.3-6.5-2.1-1.2-0.8-2.5-1.2-3-0.8-0.4 0.5-0.7 0.2-0.7-0.5 0-0.6-0.5-1-1-0.7-0.5 0.3-1 0-1-0.5 0-0.6-0.5-0.8-1-0.5-0.5 0.3-1.4-0.3-2-1.3-0.5-0.9-1-1.4-1-1 0 0.5-2.5-1.7-5.5-4.7-3-3-6.6-7.5-8-10-1.4-2.5-2.2-4.5-1.8-4.5 0.5 0 0.2-0.4-0.5-0.8-0.7-0.4-1.3-1.8-1.4-3.2-0.1-1.4-0.7-2.8-1.3-3.2-0.6-0.5-1-10.1-1-28 0-15 0.4-28.2 0.9-29.3 0.5-1.1 1-3.4 1.2-5 0.1-1.6 0.7-3.1 1.3-3.3 0.6-0.1 0.9-0.7 0.6-1.2-0.3-0.6 0-1 0.5-1 0.5 0 0.8-0.5 0.5-1-0.3-0.6 0.3-1.2 1.2-1.5 1-0.3 1.5-0.9 1.1-1.3-0.5-0.4-0.2-1.3 0.5-2.1 0.9-1.1 0.9-1.5-0.1-1.8-0.6-0.1-1.2-0.9-1.2-1.6-0.1-0.6-0.8-1.8-1.8-2.5q-1.7-1.3-0.2-0.7c0.9 0.4 0.8 0.1-0.2-0.7-1-0.7-2-2-2.1-2.8-0.2-0.8-0.8-2.4-1.3-3.5-0.5-1.1-0.9-14.5-0.9-29.8 0-18.7 0.4-28 1.1-28.5 0.6-0.4 1.4-1.6 1.9-2.7 0.4-1.1 0.9-2.3 0.9-2.7 0.1-0.4 0.7-1.3 1.4-2 0.7-0.7 1.2-2.3 1.2-3.6 0-1.2-0.5-2.2-1-2.2-0.5 0-0.8-0.5-0.5-1 0.3-0.6-0.2-1.2-1-1.5-0.8-0.3-1.5-1.6-1.5-3 0-1.4-0.5-2.6-1.2-2.8-0.8-0.1-1.1-8.3-1.1-31.2 0-29.8 0.1-31.1 2.2-34.8 1.1-2 1.6-3.8 1.1-4-0.6-0.1-1.2-1.6-1.3-3.2-0.1-1.7-0.5-3.2-0.9-3.5-0.3-0.3-1-3.7-1.4-7.5-0.4-3.9-0.7-9.9-0.6-13.5 0-3.6 0.3-8.4 0.6-10.8 0.3-2.3 0.9-4.2 1.3-4.2 0.5 0 0.9-1.2 1-2.8 0.1-1.5 0.6-2.8 1.2-3 0.6-0.1 0.9-0.7 0.6-1.2-0.3-0.6 0.4-1.9 1.5-3 1.1-1.1 1.7-2.2 1.2-2.5-0.4-0.3 0.1-0.7 1-1 1-0.3 1.8-1.2 1.8-2 0-0.8 1.6-2.7 3.5-4.3 1.9-1.5 5-3.9 6.7-5.4 1.8-1.5 5-3.3 7.1-4 2.1-0.7 3.7-1.6 3.7-2.1 0-0.4 1-0.7 2.2-0.7 1.3 0 2.9-0.4 3.7-0.8 0.8-0.4 5-0.7 9.5-0.7zm-349.1 459.6c2.6-0.1 4.9 0.4 5.1 1 0.2 0.6 1.4 0.8 2.5 0.5 1.2-0.3 2.3-0.1 2.6 0.4 0.3 0.5 1.2 0.8 2 0.5 0.8-0.3 1.5 0 1.5 0.5 0 0.5 0.5 0.8 1 0.5 0.6-0.3 1 0 1 0.5 0 0.5 0.3 1 0.8 0.9 0.4-0.1 1.7 0.2 3 0.5 1.2 0.3 2.2 1.1 2.2 1.6 0 0.5 0.5 1 1 1 0.6 0 2.8 1.7 5 3.7 2.2 2.1 4 4.4 4 5 0 0.7 0.5 1.3 1 1.3 0.6 0 0.8 0.5 0.5 1-0.3 0.5-0.1 1.1 0.4 1.2 0.5 0.2 1.1 1 1.3 1.8 0.2 0.8 0.6 1.7 1.1 2 0.4 0.3 0.8 1.6 0.9 3 0.1 1.4 0.5 3 0.8 3.5 0.4 0.5 0.8 2.7 0.9 4.7 0 2.1-0.3 4-0.9 4.3-0.5 0.3-0.7 1.3-0.4 2.2 0.3 1 0.1 2.1-0.5 2.5-0.6 0.5-0.9 1.5-0.6 2.3 0.3 0.8 0.2 1.5-0.2 1.5-0.5 0-0.9 1.2-1 2.8-0.1 1.5-0.7 2.9-1.3 3.2-0.6 0.3-1 1-0.9 1.5 0.1 0.5 0.1 1.2-0.1 1.5-0.1 0.3-0.4 1.6-0.6 3-0.3 1.4-1 2.8-1.7 3.2-0.7 0.4-0.9 1.1-0.5 1.5 0.4 0.4 0.2 1.7-0.4 2.8-0.7 1.1-1.4 2.3-1.5 2.7-0.2 0.5-0.3 0.9-0.4 1 0 0.2-0.2 1-0.3 1.8-0.2 0.8-1.1 4-2.1 7-1 3-2.3 6.1-2.9 6.8-0.6 0.7-0.7 1.3-0.2 1.2 0.6 0 0.5 0.6-0.1 1.2-0.7 0.7-1 1.9-0.7 2.5 0.2 0.7 0 1.3-0.6 1.3-0.5 0-0.8 0.6-0.6 1.2 0.3 0.7 0.2 1.7-0.2 2.1-0.4 0.5-0.7 1.4-0.8 2-0.1 0.7-0.2 2.2-0.2 3.4q-0.2 2.3-1.4 1.5c-0.9-0.5-1 0.1-0.5 2.5 0.4 2 0.3 3.5-0.3 3.8-0.5 0.3-0.7 1.1-0.3 1.7 0.5 1 0.3 1-1 0-0.9-0.6-2.8-1-4.2-0.7-1.4 0.3-2.5 0-2.5-0.5 0-0.5-0.8-1-1.7-1-1.7 0-1.8-2.2-2.1-29.8-0.2-21.9-0.5-30-1.5-31-0.6-0.7-1.9-1.3-2.7-1.3-0.8 0-2 0.6-2.6 1.3-0.7 0.8-1.5 7.6-1.9 16.3-0.4 8.2-0.9 21.5-1 29.5-0.2 8-0.4 14.8-0.4 15.2-0.1 0.5-0.8 0.6-1.6 0.3-0.8-0.3-2.4 0-3.5 0.5-1.1 0.5-2.7 0.8-3.5 0.5-0.8-0.3-1.3-1.2-1-2 0.3-0.8 0.1-1.5-0.5-1.5-0.5 0-1-1.6-1-3.5 0-1.9-0.4-3.7-1-4-0.5-0.3-0.8-1.2-0.5-2 0.3-0.8 0.1-1.5-0.5-1.5-0.5 0-0.9-0.6-0.8-1.3 0-0.6-0.4-2.6-1.1-4.2-0.7-1.7-1.3-3.9-1.4-5-0.1-1.1-0.5-2.2-0.9-2.5-0.4-0.3-1-2.3-1.3-4.5-0.3-2.2-1-4.2-1.5-4.5-0.5-0.3-1.1-1.4-1.3-2.5-0.2-1.1-0.7-2.7-1.1-3.5-0.4-0.8-0.8-2.2-1-3-0.2-0.8-0.7-2.6-1.2-4-0.4-1.4-0.6-2.7-0.5-3 0.2-0.3-0.2-0.7-0.8-1-0.5-0.3-1.2-1.4-1.3-2.5-0.2-1.1-0.7-2.6-1.1-3.3-0.4-0.6-0.5-1.7-0.2-2.2 0.3-0.5 0.2-1-0.2-1-0.5 0-0.9-0.6-1.1-1.3-0.1-0.6-0.4-2.3-0.5-3.7-0.2-1.4-0.6-3-0.9-3.5-0.4-0.5-0.6-3.8-0.5-7.3 0.1-3.4 0.5-6.2 1-6.2 0.4 0 0.6-0.4 0.5-0.8-0.2-0.4 0.6-2.5 1.7-4.7 1.1-2.1 4.1-5.9 6.7-8.4 2.7-2.5 5-4.4 5.3-4.1 0.3 0.3 0.5-0.1 0.5-0.8 0-0.6 0.7-1.2 1.5-1.2 0.8 0 1.5-0.5 1.5-1 0-0.5 0.5-0.8 1-0.5 0.6 0.3 1.2 0 1.5-0.5 0.3-0.5 1-0.8 1.5-0.5 0.6 0.3 1 0 1-0.5 0-0.5 0.6-0.9 1.3-0.8 0.6 0 1.9-0.1 2.7-0.5 0.8-0.3 2.2-0.8 3-1 0.8-0.3 3.6-0.6 6.3-0.6zm393.1 23c2.3 0 6.6 0.5 9.6 1 3 0.5 7.3 1.1 9.5 1.5 2.2 0.3 4.5 0.9 5 1.4 0.5 0.5 1.3 0.9 1.7 0.9 0.5 0.1 2.2 0.3 3.8 0.6 1.6 0.3 3 1 3 1.5 0 0.5 0.3 0.9 0.7 0.8 0.5-0.2 4.3 1.4 8.5 3.5 4.3 2 7.8 4.2 7.8 4.7 0 0.5 0.7 1 1.5 1 0.8 0 5.6 3.9 10.5 8.7 5 4.9 9 9.4 9 10 0 0.7 0.3 1.3 0.7 1.3 0.5 0 2.6 2.3 4.8 5.2 2.2 2.9 3.9 5.7 3.7 6.3-0.2 0.5 0 0.7 0.5 0.3 0.4-0.5 1.4-0.3 2 0.2 0.7 0.6 2.1 0.8 3 0.5 1-0.3 3-1.5 4.5-2.7 1.5-1.3 2.7-2.9 2.8-3.6 0-0.6 1.1-1.9 2.5-2.7 1.4-0.8 2.3-2 2-2.5-0.3-0.5 0.2-1.2 1-1.5 0.8-0.3 1.5-1 1.5-1.5 0-0.5 3.3-4.4 7.2-8.5 4-4.1 7.9-7.4 8.5-7.5 0.7 0 1.3-0.5 1.3-1 0-0.5 1.7-2 3.7-3.2 2.1-1.2 4.1-2.1 4.5-2 0.5 0.1 0.8-0.3 0.8-0.8 0-0.5 0.8-1.2 1.7-1.5 1-0.3 2.1-0.4 2.4-0.2 0.3 0.1 1.4-0.6 2.5-1.6 1-1 2.5-1.6 3.1-1.3 0.7 0.3 2-0.1 2.8-0.9 0.8-0.8 2-1.3 2.5-1 0.5 0.3 1 0 1-0.5 0-0.5 0.3-0.9 0.7-0.8 0.5 0.1 2-0.4 3.5-1 1.6-0.7 3.1-1.1 3.5-1 0.5 0 1.7-0.2 2.8-0.7 1.1-0.4 2.8-0.5 3.7-0.1 1 0.3 1.8 0.3 1.8-0.2 0-0.4 5.7-0.6 12.7-0.6 7.1 0.1 13 0.3 13.3 0.4 0.3 0.1 1.5 0.2 2.7 0.1 1.3-0.1 2.3 0.4 2.3 0.9 0 0.5 0.8 0.9 1.7 0.8 1-0.1 3.5 0.1 5.5 0.5 2.1 0.4 3.8 1.2 3.8 1.7 0 0.5 0.6 0.8 1.2 0.6 0.7-0.3 1.7-0.2 2.1 0.2 0.5 0.4 1.4 0.8 2 0.8 0.7 0.1 3.8 1.4 7 3 3.2 1.6 5.7 3.2 5.7 3.6 0 0.5 0.5 0.6 1 0.3 0.5-0.3 1 0 1 0.5 0 0.5 0.7 1 1.5 1 0.8 0 1.7 0.7 2 1.5 0.3 0.8 1 1.3 1.5 1 0.5-0.3 1 0 1 0.5 0 0.5 0.5 1 1 1 0.5 0 1.7 0.6 2.7 1.2 0.9 0.7 4.4 4.1 7.7 7.5 3.4 3.4 6.9 7.1 7.8 8.2 1 1.2 1.8 2.6 1.8 3.1 0 0.5 0.7 1.2 1.5 1.5 0.8 0.3 1.3 1 1 1.5-0.3 0.5 0.2 1.2 1 1.5 0.8 0.3 1.3 1 1 1.5-0.3 0.5 0.2 1.2 1 1.5 0.8 0.3 1.3 1 1 1.5-0.3 0.5 0 1 0.5 1 0.5 0 0.8 0.5 0.5 1-0.3 0.5 0 1 0.5 1 0.5 0 0.8 0.5 0.5 1-0.3 0.5 0 1.1 0.5 1.2 0.6 0.2 1.2 1 1.3 1.8 0.2 0.8 0.8 2.5 1.5 3.7 0.7 1.3 0.9 2.3 0.4 2.3-0.4-0.1-0.1 0.6 0.5 1.5 0.7 0.8 1.1 2 0.8 2.5-0.3 0.5 0 1 0.5 1 0.5 0 0.8 0.7 0.5 1.5-0.3 0.8-0.1 1.6 0.4 1.7 0.5 0.2 1.3 2.3 1.6 4.8 0.4 2.5 0.9 5.6 1.1 7 0.3 1.4 0.9 5.6 1.4 9.5 0.4 3.8 0.7 10.4 0.4 14.5-0.2 4.1-0.6 8.6-0.8 10-0.2 1.4-0.5 2.5-0.6 2.5-0.1 0-0.4 1.3-0.5 3-0.2 1.6-0.6 4.3-1 6-0.3 1.6-1.1 4.6-1.7 6.5-0.6 1.9-1.3 4-1.7 4.5-0.3 0.5-0.7 1.3-0.8 1.7-0.2 0.5-0.3 1.5-0.3 2.3 0 0.8-0.6 2.1-1.3 2.8-0.6 0.7-1.3 1.9-1.5 2.7-0.1 0.8-1.2 3.6-2.5 6.2-1.2 2.6-2.5 4.5-3 4.3-0.4-0.3-0.6 0.1-0.5 0.7 0.2 0.7-0.9 3.2-2.2 5.6-1.4 2.3-2.8 4.2-3.3 4.2-0.4 0-0.5 0.5-0.2 1 0.3 0.5 0 1-0.5 1-0.5 0-1 0.7-1 1.5 0 0.8-0.5 1.5-1 1.5-0.5 0-1 0.7-1 1.5 0 0.8-0.5 1.5-1 1.5-0.5 0-1 0.7-1 1.5 0 0.8-0.5 1.5-1 1.5-0.5 0-1 0.6-1 1.2 0 0.7-1 2.4-2.3 3.8-1.2 1.4-3.2 4.1-4.4 6-1.1 1.9-2.8 3.8-3.7 4.2-0.9 0.5-1.6 1.5-1.6 2.3 0 0.8-1.6 2.8-3.5 4.5-1.9 1.6-3.2 3-2.8 3 0.5 0-0.6 1.3-2.4 2.8-1.8 1.5-3.2 3.2-3.2 3.7 0 0.5-1.7 2.6-3.8 4.5-2.1 1.9-5.4 5.4-7.3 7.7-1.9 2.4-3.9 3.9-4.5 3.5-0.6-0.4-0.7-0.2-0.2 0.5 0.4 0.8-0.6 2.3-2.9 4-2 1.6-7.8 7-12.8 12-5 5.1-9.4 9.3-9.9 9.3-0.4 0-2.7 1.9-5.1 4.2-2.4 2.4-6.1 5.8-8.2 7.6-2.2 1.8-5.5 4.7-7.6 6.5-2 1.8-5.2 4.5-7.2 6.2-2 1.6-4.5 3.8-5.6 4.7-1.1 1-5.5 4.5-9.8 7.7-4.2 3.3-8.9 6.9-10.5 8-1.5 1.2-3.2 2.1-3.7 2.1-0.5 0-1 0.5-1 1 0 0.5-0.7 1-1.5 1-0.8 0-1.7 0.7-2 1.5-0.3 0.8-1 1.3-1.5 1-0.5-0.3-1 0-1 0.5 0 0.5-1.5 1.8-3.3 2.7-1.7 0.9-3.5 1.6-4 1.5-0.4-0.1-0.7 0.1-0.7 0.5 0.1 0.5-2.1 1.7-4.7 2.9-2.6 1.1-6.6 2.2-8.8 2.3-2.2 0.1-6.1-0.5-8.8-1.4-2.6-0.8-4.7-2.1-4.7-2.8 0-0.6-0.3-0.9-0.7-0.4-0.5 0.4-1.9 0-3.3-1-1.4-0.9-2.8-2.2-3.3-3-0.4-0.7-1.2-1.1-1.7-0.8-0.5 0.3-1 0-1-0.5 0-0.5-0.7-1-1.5-1-0.8 0-2.1-0.9-2.8-2-0.6-1.1-1.5-1.7-1.9-1.2-0.4 0.4-1-0.1-1.3-1.1-0.3-0.9-1.2-1.7-2-1.7-0.8 0-1.7-0.7-2-1.5-0.3-0.8-1.1-1.5-1.8-1.5-0.6 0-2.8-1.5-4.8-3.3-2-1.7-4.6-3.9-5.9-4.7-1.3-0.8-4.1-3.1-6.4-5-2.3-1.9-5.1-4.4-6.3-5.5-1.2-1.1-3.4-3-5-4.2-1.5-1.2-4.8-3.9-7.3-6-2.5-2.1-6.5-5.7-9-8-2.5-2.4-11.9-11.5-21-20.3-9.1-8.8-16.2-16-15.8-16 0.5 0-2.4-3.3-6.3-7.3-3.9-3.9-8.4-8.6-10-10.2-1.6-1.7-2.9-3.5-2.9-4-0.1-0.5-1.1-1.9-2.3-3.1-1.2-1.2-3.1-3.3-4.2-4.8-1.1-1.4-3.2-4.1-4.7-5.8-1.5-1.8-2.8-3.9-2.8-4.6 0-0.6-0.3-1.3-0.8-1.5-0.4-0.1-1.7-1.4-3-3-1.2-1.5-2-3.2-1.7-3.7 0.3-0.5 0-1-0.5-1-0.5 0-1.3-0.8-1.7-1.8-0.4-0.9-1.5-2.6-2.5-3.7-0.9-1.1-1.5-2.3-1.3-2.8 0.3-0.4 0.2-0.7-0.3-0.7-0.4 0-2.3-3.2-4.2-7.2-1.8-4-3.8-7.4-4.2-7.6-0.4-0.1-0.8-1-0.8-2 0-0.9-0.7-2.6-1.5-3.7-0.8-1.1-1.2-2.6-0.9-3.3 0.2-0.6-0.1-1.2-0.6-1.2-0.5 0-0.8-0.7-0.5-1.5 0.3-0.8 0-1.5-0.7-1.5-0.6 0-0.8-0.3-0.5-0.8 0.4-0.4 0.2-1.3-0.3-2-0.6-0.6-0.9-1.5-0.8-2 0.1-0.4-0.4-2.1-1.1-3.7-0.7-1.7-1.4-4.8-1.7-7-0.2-2.2-0.7-6.5-1.1-9.5-0.4-3-0.7-9.8-0.6-15 0.1-5.2 0.5-10.2 0.9-11 0.4-0.8 0.8-2.4 1-3.5 0.2-1.1 0.5-2.9 0.8-4 0.2-1.1 0.5-2.2 0.7-2.5 0.1-0.3 0.3-1 0.4-1.5 0.1-0.5 0.4-2.5 0.8-4.3 0.4-1.7 1.2-3.2 1.7-3.2 0.5 0 0.8-0.7 0.5-1.5-0.3-0.8 0-1.5 0.5-1.5 0.5 0 1-1.1 1-2.5 0-1.4 0.5-2.5 1-2.5 0.5 0 0.8-0.5 0.5-1-0.3-0.5 0-1 0.5-1 0.5 0 0.9-0.3 0.8-0.8-0.1-0.4 0.1-1.7 0.5-3 0.4-1.2 1.2-2.2 1.7-2.2 0.5 0 0.8-0.5 0.5-1-0.3-0.5 0.3-1.4 1.2-2 1-0.5 1.5-1 1-1-0.4 0 0.7-2 2.4-4.4 1.7-2.4 3.7-4.6 4.5-5 0.8-0.3 1.4-1.2 1.4-1.9 0-0.6 1.9-3.1 4.3-5.5 2.4-2.3 4.7-4.2 5.1-4.2 0.4 0 2.1-1.4 3.8-3 1.6-1.7 3.6-3 4.4-3 0.8 0 1.4-0.3 1.4-0.8 0-0.4 2.2-1.9 5-3.5 2.7-1.5 5-2.4 5-2-0.1 0.5 0.9-0.1 2-1.2 1.1-1.1 2.1-1.5 2-1 0 0.5 0.4 0.4 0.8-0.3 0.4-0.7 1.4-1.4 2.2-1.6 0.8-0.1 2.9-0.8 4.5-1.5 1.6-0.7 5.5-1.9 8.5-2.6 3-0.8 5.8-1.2 6.2-1 0.5 0.3 1.4 0.1 2-0.4 0.7-0.5 3.5-0.9 6.1-0.9 2.7 0 5.1-0.3 5.4-0.6 0.4-0.3 2.5-0.6 4.7-0.5zm-470.7 3.2c4.8 0 9.2 0.2 9.8 0.5 0.5 0.4 2.1 0.7 3.5 0.9 1.4 0.1 2.6 0.7 2.7 1.3 0.2 0.5 0.7 0.8 1.3 0.5 0.5-0.3 1 0 1 0.5 0 0.5 0.4 0.8 1 0.5 0.5-0.3 1.4 0.3 2 1.2 0.5 1 0.9 1.3 0.9 0.8 0-0.5 1.1 0.1 2.5 1.5 1.3 1.4 4 5.5 6 9.2 2 3.8 3.3 6.8 2.8 6.8-0.4-0.1-0.1 0.5 0.5 1.2 0.7 0.7 1 1.6 0.6 2-0.3 0.5-0.1 0.8 0.5 0.8 0.7 0 1.1 0.3 1 0.7-0.1 0.5 0.6 2.6 1.6 4.8 0.9 2.2 1.9 4.9 2.1 6 0.2 1.1 0.4 2.2 0.5 2.5 0.2 0.3 0.2 0.8 0.1 1.2 0 0.5 0.3 0.8 0.9 0.8 0.5 0 0.8 0.7 0.5 1.5-0.3 0.8 0 1.6 0.6 1.7 0.6 0.2 1.1 1.5 1 3 0 1.6 0.2 2.8 0.6 2.8 0.5 0 1.2 1.4 1.7 3.2 0.5 1.8 1 3.6 1.2 4 0.2 0.5 0.4 1 0.4 1.3 0 0.3 0.1 0.8 0.3 1.2 0.1 0.5 0.6 1.4 1 2 0.4 0.7 0.8 2.5 0.9 4 0.1 1.6 0.5 3.3 0.9 3.8 0.4 0.5 0.9 2.6 1.1 4.5 0.2 1.9 0.7 4.1 1.1 4.7 0.4 0.7 0.5 1.6 0.2 2-0.3 0.5 0.1 1.4 0.8 2.1 0.9 1 0.9 1.3-0.1 1.2-0.7 0-0.9 0.5-0.5 1.2 0.6 0.9 0.3 1-1 0.5-0.9-0.4-1.7-0.4-1.7 0 0 0.5-1.4 1.5-3.2 2.4-2.5 1.1-3.9 1.3-5.6 0.5-1.2-0.6-2.2-1.7-2.2-2.4 0-0.6-0.5-1.2-1-1.2-0.6 0-1-0.6-1-1.3 0.1-0.6-0.8-2.1-1.9-3.2-1.2-1.1-1.8-2.3-1.6-2.8 0.3-0.4 0-0.7-0.7-0.7-0.6 0-0.8-0.2-0.5-0.5 0.4-0.3 0.1-1.1-0.6-1.9-0.6-0.8-1.9-2.2-2.7-3.2-0.8-1.1-3.2-4.3-5.3-7.2-2-2.8-3.4-5.2-3-5.2 0.5 0 0-0.5-1-1-0.9-0.6-1.5-1.5-1.2-2 0.3-0.5-0.2-1.2-1-1.5-0.8-0.3-1.3-1-1-1.5 0.3-0.5-0.2-1.2-1-1.5-0.8-0.3-1.3-1-1-1.5 0.3-0.5 0-1-0.5-1-0.6 0-1-0.7-1-1.5 0-0.8-0.5-1.5-1-1.5-0.6 0-1-0.5-1-1 0-0.5-0.6-1.6-1.3-2.3-0.6-0.8-2.3-1.2-3.7-1-1.4 0.2-3.1 0.8-3.8 1.4-0.8 0.6-0.9 1.6-0.2 3.1 0.5 1.3 0.6 2.6 0.2 3-0.4 0.4 0.1 1 1 1.3 1 0.3 1.8 1.2 1.8 2 0 0.8 0.8 1.7 1.7 2 1 0.3 1.5 0.9 1.1 1.3-0.5 0.4 0.1 1.3 1.2 1.9 1.1 0.7 2 2 2 2.8 0 0.8 0.4 1.5 1 1.5 0.5 0 1.2 1.1 1.5 2.5 0.3 1.4 0.9 2.3 1.5 2 0.5-0.3 1.3 0.3 1.7 1.2 0.3 1 0.5 2.1 0.5 2.5-0.1 0.5 0.2 0.8 0.8 0.8 0.5 0 2 1.7 3.2 3.7 1.3 2.1 2.3 4 2.3 4.3 0 0.3 1 1.7 2.2 3 1.2 1.4 2 2.8 1.8 3.2-0.3 0.5-0.1 0.8 0.5 0.8 0.5 0 1 0.7 1 1.5 0 0.8 0.4 1.5 1 1.5 0.5 0 0.8 0.5 0.5 1-0.3 0.5 0.1 1.2 0.7 1.5 0.7 0.3 1.3 1.4 1.3 2.4 0 1-1.4 3.4-3 5.4-1.6 2-3.6 3.6-4.3 3.7-0.6 0-1.2-0.5-1.2-1 0-0.5-0.6-1-1.3-1-0.6 0.1-2.8-1.7-4.7-4-1.9-2.2-4.1-4-4.8-4-0.6 0-2.4-1.6-4-3.5-1.5-1.9-3-3.2-3.5-3-0.4 0.3-1.7-0.9-3-2.5-1.2-1.7-2.7-3-3.2-3-0.6 0-2-1-3.2-2.2-1.2-1.3-3.4-3.2-4.9-4.3-1.5-1.1-3.7-3-5-4.3-1.3-1.2-2.9-2.2-3.4-2.2-0.6 0-1.5-0.9-2-2-0.6-1.1-1.7-2-2.5-2-0.8 0-2-0.9-2.5-2-0.6-1.1-1.5-2-2-2-0.6 0-2.8-1.7-5-3.8-2.2-2-4-4.3-4-5 0-0.6-0.5-1.2-1-1.2-0.6 0-0.8-0.5-0.5-1 0.3-0.5 0-1-0.5-1-0.6 0-0.8-0.7-0.5-1.5 0.3-0.8 0-1.5-0.5-1.5-0.6 0-0.7-0.8-0.4-1.8 0.3-0.9 0.1-2-0.5-2.5-0.6-0.4-1.1-3-1.1-5.7 0-2.8 0.4-5 1-5 0.5 0 0.8-1.1 0.5-2.5-0.3-1.4-0.1-2.5 0.5-2.5 0.5 0 0.8-0.7 0.5-1.5-0.3-0.8-0.1-1.6 0.5-1.8 0.5-0.1 1.1-1.2 1.2-2.5 0.2-1.2 1-2.7 1.8-3.2 0.8-0.5 1.2-1 0.7-1-0.4 0 0.5-1.2 2-2.6 1.6-1.4 2.1-2.2 1.3-1.8-0.9 0.4-0.7-0.1 0.5-1.4 1.1-1.2 2.3-1.9 2.7-1.7 0.5 0.3 1.2-0.4 1.8-1.5 0.5-1.1 1.3-1.8 1.7-1.5 0.5 0.2 1.6-0.5 2.5-1.5 1-1.1 2.2-1.8 2.8-1.5 0.5 0.3 1 0 1-0.5 0-0.5 0.4-0.8 1-0.5 0.5 0.3 1 0 1-0.5 0-0.6 0.8-0.7 1.7-0.3 1.4 0.6 1.6 0.5 0.8-0.7-0.8-1.2-0.6-1.3 0.7-0.7 1 0.4 2 0.3 2.2-0.2 0.3-0.5 4.4-0.9 9.3-0.8zm158.7 0c6.8 0.4 10.3 1 10.7 1.9 0.4 0.7 1.2 1 1.8 0.5 0.6-0.4 1.8 0 2.6 0.8 0.8 0.8 1.7 1.2 2 0.7 0.3-0.4 0.5-0.1 0.5 0.5 0 0.7 0.7 1.3 1.5 1.3 0.8 0 1.5 0.5 1.5 1 0 0.5 0.3 0.8 0.7 0.5 0.5-0.2 3.2 2 6 5 2.9 3 5.1 6 4.8 6.5-0.3 0.5-0.1 1 0.5 1 0.6 0 1.2 0.8 1.5 1.7 0.3 1 0.4 2.3 0.4 2.8 0 0.5 0.4 1.2 0.9 1.5 0.6 0.3 1.3 2.1 1.7 4 0.3 1.9 0.9 5.3 1.2 7.5 0.3 2.2 0 6.5-0.8 9.5-1 4.1-2.4 6.7-5.6 10-2.4 2.5-4.7 4.5-5.2 4.5-0.5 0-1.9 0.9-3.1 2-1.1 1.1-2.8 2.8-3.8 3.8-0.9 0.9-2.3 1.7-3 1.7-0.6 0-1.6 0.8-2.2 1.7-0.5 1-0.9 1.3-0.9 0.8 0-0.5-1.2 0.1-2.5 1.5-1.4 1.4-3.5 3.3-4.6 4.2-1.1 1-2.2 1.7-2.4 1.5-0.2-0.1-1.4 1-2.5 2.5-1.2 1.6-2.8 2.8-3.6 2.8-0.8 0-2.2 1.1-3 2.5-0.8 1.4-2.2 2.5-3 2.5-0.8 0-1.9 0.9-2.5 2-0.6 1.1-1.7 2-2.5 2-0.8 0-1.9 0.9-2.5 2-0.6 1.1-1.6 2-2.3 2-0.6 0-1.8 0.9-2.5 2-0.6 1.1-1.9 2-2.7 2-0.8 0-2.4 1.1-3.5 2.5-1.1 1.4-2.4 2.5-3 2.5-0.6 0-2.1-1.6-3.5-3.5-1.4-1.9-3.1-3.4-3.7-3.3-0.7 0.2-1.4-0.6-1.6-1.7-0.2-1.3 0.6-2.6 2.2-3.8 1.4-0.9 2.4-2 2.1-2.5-0.2-0.4 1-2.4 2.8-4.4 1.8-2.1 3-4 2.7-4.3-0.3-0.2 0.3-0.7 1.2-1 1-0.3 1.8-1.2 1.8-2 0-0.8 0.9-2.1 2-2.8 1.1-0.6 2-1.8 2-2.5 0-0.6 0.9-1.8 2-2.5 1.1-0.6 2-1.8 2-2.5 0-0.6 0.4-1.2 1-1.2 0.6 0 1.4-1.1 2-2.5 0.6-1.4 1.4-2.5 2-2.5 0.6 0 1-0.7 1-1.5 0-0.8 1.1-2.2 2.5-3 1.4-0.8 2.3-2 2-2.5-0.3-0.5 0.2-1.3 1-1.8 0.8-0.4 1.8-2.4 2.3-4.4 0.6-3.4 0.5-3.8-1.8-4.6-2-0.8-3.1-0.4-5.7 1.7-1.7 1.4-3.2 3.1-3.2 3.6-0.1 0.5-1.4 2.5-3.1 4.2-1.6 1.8-3 3.8-3 4.3 0 0.5-0.7 1.2-1.5 1.5-0.8 0.3-1.5 1.1-1.5 1.7 0 0.7-1.4 2.9-3.2 4.8-1.8 1.9-3.3 3.9-3.3 4.3 0 0.5-0.8 1.4-1.7 2-1 0.7-1.7 1.7-1.8 2.2 0 0.5-1.4 2.6-3.2 4.5-1.8 1.9-3.1 3.8-3 4.2 0.1 0.5-0.5 1-1.3 1.3-0.8 0.3-1.5 1.2-1.5 2 0 0.8-0.7 1.7-1.5 2-0.8 0.3-1.3 1-1 1.5 0.3 0.5-0.6 1-2 1-1.4 0-2.5-0.5-2.5-1 0-0.5-0.4-0.8-1-0.5-0.6 0.3-1.7-0.2-2.5-1-0.8-0.8-1.6-1.3-1.8-1-0.1 0.3-0.5-0.2-1-1-0.4-0.8-0.3-1.7 0.3-2 0.6-0.3 0.8-1 0.5-1.5-0.3-0.5-0.1-1.6 0.4-2.3 0.4-0.6 0.8-2.6 0.9-4.2 0-1.7 0.5-4 1.1-5.3 0.6-1.2 0.9-2.2 0.6-2.2-0.3 0-0.2-0.6 0.2-1.3 0.4-0.6 0.8-1.7 0.8-2.2 0.1-0.5 0.5-2.4 0.9-4 0.5-1.7 1.4-3.6 2-4.3 0.6-0.7 0.7-1.3 0.2-1.2-0.6 0-0.5-0.6 0.1-1.3 0.7-0.6 1-1.8 0.7-2.5-0.2-0.6 0-1.2 0.6-1.2 0.6 0 0.8-0.3 0.6-0.8-0.3-0.4 0.2-1.9 1-3.5 0.7-1.5 1.1-2.9 0.6-3.2-0.4-0.3-0.1-0.5 0.5-0.5 0.7 0 1.1-0.5 0.8-1-0.3-0.5 0.1-1.7 0.7-2.5 0.7-0.9 1-1.6 0.5-1.5-0.4 0 0-1.1 0.8-2.5 0.8-1.4 1.5-3.2 1.5-4 0-0.8 0.4-1.5 1-1.5 0.6 0 0.9-0.3 0.9-0.8-0.1-0.4-0.1-0.9 0.1-1.2 0.1-0.3 0.4-1.6 0.6-3 0.3-1.4 1-2.7 1.5-3 0.6-0.3 1.1-1 1.1-1.5 0.1-0.5 0.3-1.8 0.5-2.8 0.1-0.9 0.7-1.7 1.3-1.7 0.6 0 0.8-0.5 0.5-1-0.3-0.5 0.2-1.2 1-1.5 0.8-0.3 1.4-0.8 1.3-1.3-0.1-0.4 1.1-2.2 2.6-4 1.5-1.7 3.4-3.2 4.2-3.2 0.8 0 1.6-0.5 1.8-1.1 0.2-0.5 1.2-1.2 2.3-1.4 1-0.2 2-0.4 2.3-0.5 0.3-0.1 0.8-0.2 1.2-0.1 0.5 0 0.8-0.4 0.8-0.9 0-0.5 0.7-0.8 1.5-0.5 0.8 0.3 1.8 0 2.2-0.6 0.4-0.8 3.8-1 10.7-0.6zm-214.2 57.7c1.5 0 3 0.5 3.3 1 0.3 0.5 1.6 1 3 1 1.4 0 2.7 0.5 3 1 0.3 0.5 0.9 0.8 1.5 0.5 0.5-0.3 1 0 1 0.5 0 0.5 0.4 0.8 1 0.5 0.5-0.3 1.2 0.2 1.5 1 0.3 0.8 0.9 1.3 1.5 1 0.5-0.3 1.4 0.4 2 1.5 0.5 1.1 1.4 1.8 2 1.5 0.5-0.3 1.2 0.2 1.5 1 0.3 0.8 1.2 1.5 2 1.5 0.8 0 1.7 0.7 2 1.5 0.3 0.8 1.2 1.5 2 1.5 0.8 0 1.7 0.7 2 1.5 0.3 0.8 0.9 1.5 1.5 1.5 0.5 0 4.2 2.6 8 5.7 3.9 3.2 7.2 6.4 7.5 7 0.3 0.7 1.1 1.3 1.7 1.3 0.7 0 3.5 2.1 6.2 4.7 2.7 2.6 5.3 4.8 5.8 4.8 0.5 0 2.5 1.6 4.6 3.7 2 2 5.7 5.4 8.2 7.7 3.7 3.3 4.2 4.2 2.7 4.6-0.9 0.3-1.5 1-1.2 1.5 0.3 0.5-0.3 1.2-1.3 1.5-0.9 0.3-1.4 0.9-1 1.3 0.4 0.4 0.3 1.5-0.2 2.4-0.6 1-2.1 1.8-3.5 1.8-1.4 0-2.5-0.3-2.5-0.8 0-0.4-1-0.8-2.2-0.9-1.3-0.1-2.4-0.7-2.6-1.3-0.1-0.5-0.7-0.8-1.2-0.5-0.6 0.3-1 0-1-0.5 0-0.5-0.5-0.8-1-0.5-0.6 0.3-1.2 0-1.5-0.5-0.3-0.5-1.4-1-2.5-1-1.1 0-2-0.6-2-1.3 0-0.6-0.3-0.9-0.7-0.4-0.4 0.4-1.8 0-3.1-0.8-1.2-0.8-2.2-1.3-2.2-1 0 0.3-1.5-0.3-3.3-1.2-1.7-0.9-3.9-1.8-4.7-1.9-0.8-0.2-1.6-0.8-1.8-1.4-0.1-0.5-0.7-0.8-1.2-0.5-0.6 0.3-1 0-1-0.5 0-0.5-0.6-0.9-1.3-0.9-0.6 0.1-2 0.1-3 0-0.9 0-1.5-0.6-1.2-1.1 0.3-0.5-0.2-0.8-1-0.5-0.8 0.3-1.5 0-1.5-0.5 0-0.5-0.5-0.8-1-0.5-0.6 0.3-1.2 0-1.5-0.5-0.3-0.5-1-0.8-1.5-0.5-0.6 0.3-1 0-1-0.5 0-0.5-0.5-0.8-1-0.5-0.6 0.3-1.2 0-1.5-0.5-0.3-0.5-1.4-1-2.5-1-1.1 0-2-0.5-2-1 0-0.5-1-0.9-2.3-0.8-1.2 0.1-2.9 0.9-3.7 1.8-0.8 0.8-1.5 2.2-1.5 3 0 0.8 0.8 2.3 1.7 3.2 1 1 2.8 2 4 2.2 1.3 0.3 2.4 0.5 2.5 0.5 0.2 0.1 0.5 0.1 0.8 0.1 0.3 0 2.2 0.7 4.2 1.6 2.1 0.9 4 2 4.3 2.4 0.3 0.5 1.9 1.1 3.5 1.4 1.6 0.4 3.4 1.1 4 1.6 0.5 0.5 1.4 0.7 1.8 0.2 0.4-0.4 0.7-0.1 0.7 0.5 0 0.7 0.6 1 1.2 0.7 0.7-0.3 2.1 0.2 3 1 1 0.9 2 1.3 2.3 0.8 0.3-0.4 0.5-0.1 0.5 0.5 0 0.7 0.4 1.1 1 0.8 0.6-0.3 1.2 0 1.5 0.5 0.3 0.5 0.9 0.8 1.5 0.5 0.6-0.3 1.7 0.2 2.5 1 0.8 0.8 1.9 1.3 2.5 1 0.6-0.3 1 0 1 0.5 0 0.5 0.4 0.8 1 0.5 0.6-0.3 1 0 1 0.5 0 0.5 0.4 0.8 1 0.5 0.6-0.3 1 0 1 0.5 0 0.5 0.4 0.8 1 0.5 0.6-0.3 1.2 0 1.5 0.5 0.3 0.5 0.9 0.8 1.5 0.5 0.6-0.3 1 0 1 0.5 0 0.5 0.4 0.8 1 0.5 0.6-0.3 1 0 1 0.5 0 0.5 0.4 0.8 1 0.5 0.6-0.3 1 0 1 0.5 0 0.5 0.6 0.8 1.2 0.6 0.8-0.2 1.3 0.6 1.3 1.8 0 1.1-0.4 2.7-0.8 3.3-0.4 0.7-0.5 2-0.2 2.8 0.3 0.8 0.1 1.5-0.5 1.5-0.6 0-0.7 0.6-0.3 1.2 0.5 1 0.3 1-0.8 0.2-0.8-0.7-3-1-4.9-0.9-1.9 0.2-3.9 0-4.5-0.4-0.6-0.4-2.8-0.7-5-0.6-2.2 0-8.9-0.5-15-1.2-6.1-0.7-13.5-1.5-16.5-1.8-3-0.2-7.5-0.7-10-1-2.5-0.3-7-0.7-10-0.9-3-0.1-5.9-0.4-6.5-0.6-0.6-0.2-1.4-0.4-2-0.5-0.6-0.2-1.3-0.3-1.8-0.4-0.4 0-1.1-0.3-1.7-0.6-0.6-0.3-1.3-0.5-1.8-0.5-0.4 0.1-2.3-1.3-4.2-2.9-1.9-1.7-3.9-3.1-4.5-3.1-0.6 0.1-1.9-0.9-3-2-1.1-1.1-1.6-2-1-2 0.6 0-0.2-1.1-1.8-2.5-1.5-1.4-2.5-3-2.2-3.5 0.3-0.5 0.1-1-0.5-1-0.6 0-0.8-0.5-0.5-1 0.3-0.5 0.1-1-0.5-1-0.6 0-0.8-0.5-0.5-1 0.3-0.5 0.1-1.2-0.5-1.5-0.6-0.3-0.8-1-0.5-1.5 0.3-0.5-0.1-1.7-0.8-2.7-0.7-1-1.2-4.5-1.1-9.2 0.1-4.2 0.3-8.3 0.5-9.1 0.3-0.8 0.8-2.1 1.2-2.8 0.4-0.6 0.5-1.5 0.2-2-0.2-0.4 0.5-2.5 1.7-4.7 1.2-2.2 3.1-4.8 4.2-5.8 1.2-1 1.4-1.5 0.6-1.2-0.8 0.4 0.6-1.3 3.2-3.9 2.7-2.5 5.2-4.4 5.8-4.1 0.6 0.3 1.2-0.3 1.5-1.3 0.3-0.9 0.7-1.4 1-1 0.3 0.5 1.2 0.1 2-0.7 0.8-0.8 2-1.2 2.6-0.8 0.6 0.5 1.6 0.2 2.1-0.5 0.5-0.7 2.4-1.5 4.1-1.7 1.8-0.3 3.4-0.7 3.6-1 0.2-0.3 1.7-0.5 3.3-0.5zm269.8 0.5c3 0.2 6.7 0.6 8.2 0.9 1.6 0.3 2.8 1.1 2.8 1.6 0 0.5 0.3 0.9 0.7 0.9 0.5-0.1 1.2-0.1 1.8-0.1 0.5 0.1 2.3 1.4 3.9 2.9 1.6 1.5 2.6 2.1 2.1 1.3-0.4-0.8 1.7 1.2 4.8 4.5 3 3.3 5.3 6.3 5.1 6.7-0.2 0.5 0.1 0.8 0.8 0.8 0.6 0 0.8 0.2 0.5 0.5-0.4 0.3 0 1.2 0.8 2 0.8 0.8 1.3 1.9 1 2.5-0.3 0.5-0.1 1 0.5 1 0.5 0 0.8 0.4 0.5 1-0.3 0.5-0.1 1.6 0.4 2.2 0.6 0.7 1 3.5 1.1 6.3 0 2.7 0.1 6.8 0 9 0 2.2-0.4 4.4-0.8 5-0.5 0.5-0.9 2.1-1 3.5-0.1 1.4-0.8 3.1-1.5 3.9-0.6 0.8-1.3 2.1-1.4 3-0.2 0.9-0.8 1.8-1.4 2.1-0.6 0.3-0.9 0.7-0.7 1 0.1 0.3-2.3 3-5.5 6-3.2 3-6.8 6-8 6.6-1.2 0.7-2.8 1-3.5 0.8-0.6-0.2-1.2 0-1.2 0.6 0 0.5-0.5 0.7-1.1 0.2-0.6-0.4-1.4-0.2-1.8 0.5-0.3 0.7-4.7 1.7-10.4 2.3-5.3 0.5-10.5 0.7-11.5 0.4-0.9-0.3-2.8-0.1-4.2 0.4-1.4 0.6-7.5 1.4-13.5 1.8-6.1 0.4-13.7 0.7-17 0.8-3.3 0-6.5 0.4-7 0.7-0.6 0.3-3.1 0.5-5.7 0.5-2.5-0.1-4.9-0.3-5.2-0.6-0.3-0.3-0.7-1.7-0.8-3.2-0.2-1.4-0.6-3-1-3.5-0.3-0.4-0.5-1.6-0.2-2.6 0.2-0.9 0.8-1.5 1.4-1.2 0.5 0.3 1 0 1-0.5 0-0.5 0.4-0.8 1-0.5 0.5 0.3 2 0 3.2-0.7 1.3-0.7 2.6-1.1 3-1 0.5 0.1 0.8-0.3 0.8-0.8 0-0.5 0.4-0.8 1-0.5 0.5 0.3 1.1 0 1.2-0.5 0.2-0.6 1.3-1.2 2.6-1.3 1.2-0.1 2.2-0.5 2.2-1 0-0.4 0.8-0.7 1.8-0.7 1 0 2.2-0.3 2.6-0.8 0.4-0.4 1.1-0.7 1.4-0.7 0.4-0.1 1.6-0.6 2.7-1.3 1.1-0.6 2.4-0.8 2.8-0.4 0.4 0.4 0.7 0.1 0.7-0.6 0-0.6 1.8-1.5 4-2 2.2-0.4 4-1 4-1.5 0-0.4 0.7-0.5 1.5-0.2 0.8 0.3 1.5 0 1.5-0.5 0-0.5 0.6-1 1.2-1 0.7 0 2.7-0.6 4.3-1.5 1.6-0.8 4-1.6 5.3-1.8 1.2-0.1 2.2-0.4 2.2-0.7 0-0.3 1.4-1 3.2-1.7 1.8-0.6 4-1.9 4.8-2.9 1.1-1.3 1.2-1.8 0.2-2.1-0.6-0.1-1.2-1-1.2-1.8 0-0.8-0.5-1.3-1-1-0.6 0.3-1.2 0-1.5-0.5-0.3-0.6-2.4-0.2-5.3 1.1-2.6 1.1-5.4 2.1-6.2 2.3-0.8 0.1-2.5 0.7-3.8 1.4-1.2 0.7-2.4 1-2.7 0.7-0.3-0.3-1.2 0.2-2 1-0.8 0.8-2 1.3-2.5 1-0.6-0.3-1.2 0-1.5 0.5-0.3 0.5-1.2 0.8-2 0.5-0.8-0.3-1.5 0-1.5 0.5 0 0.5-0.5 0.8-1 0.5-0.6-0.3-1 0-1 0.5 0 0.5-0.7 0.8-1.5 0.5-0.8-0.3-1.5 0-1.5 0.5 0 0.5-0.3 0.9-0.8 0.8-0.4 0-2.7 0.8-5.2 2-2.5 1.1-6.9 3-9.8 4.1-2.8 1.2-5.2 1.9-5.2 1.6 0-0.3-0.7 0.2-1.5 1-0.8 0.8-2 1.3-2.5 1-0.6-0.3-1 0-1 0.5 0 0.5-0.9 1-2 1-1.1 0-1.8-0.5-1.5-1 0.3-0.5 0-1-0.5-1-0.6 0-0.8-0.5-0.5-1 0.3-0.5 0-1-0.5-1-0.6 0-1-0.7-1-1.5 0-0.8-0.5-1.5-1-1.5-0.6 0-0.8-0.5-0.5-1 0.3-0.5 0-1.1-0.6-1.3-0.7-0.1 0-1.6 1.5-3.2 1.5-1.7 2.4-2.3 2-1.5-0.5 0.8 2.1-1.3 5.6-4.8 3.6-3.4 6.9-6.2 7.5-6.2 0.5 0.1 1.9-1.1 3-2.5 1.1-1.4 2.4-2.5 3-2.5 0.5 0 1.9-1.1 3-2.5 1.1-1.4 2.4-2.6 3-2.5 0.5 0 1.6-0.9 2.2-2 0.7-1.1 1.6-1.8 2-1.5 0.5 0.2 1.6-0.7 2.5-2 1-1.4 2.2-2.4 2.7-2.3 0.5 0.2 2-0.8 3.3-2.2 1.4-1.4 4-3.7 5.9-5.3 1.9-1.5 3.8-2.7 4.4-2.7 0.5-0.1 1.6-0.8 2.3-1.8q1.4-1.7 0.7-0.2c-0.3 0.8 0.2 0.5 1.2-0.8 1-1.3 2.4-2.3 3-2.2 0.7 0 1.3-0.5 1.3-1 0-0.5 0.4-0.8 1-0.5 0.5 0.3 1 0 1-0.5 0-0.5 1.1-1.2 2.5-1.5 1.4-0.3 2.4-0.9 2.3-1.4-0.1-0.5 1.1-1.4 2.7-1.9 1.7-0.5 5.5-0.8 8.5-0.7zm-134 35.1c3.6 0.2 7.4 0.6 8.5 0.8 1.1 0.2 2.2 0.5 2.5 0.6 0.3 0.2 0.9 0.4 1.5 0.5 0.5 0.2 1.2 0.4 1.5 0.5 0.3 0.1 1.6 0.4 3 0.6 1.4 0.3 2.7 1 3 1.5 0.3 0.6 0.8 1 1.2 1 0.5-0.1 2.5 0.7 4.5 1.6 2.1 0.9 4.3 2.4 5 3.3 0.7 0.8 1.2 1 1.3 0.5 0-0.6 0.6-0.1 1.5 1 0.8 1.1 1.4 1.5 1.4 1 0-0.6 2.4 1.5 5.3 4.4 2.9 3 5.3 5.8 5.3 6.3 0 0.4 0.9 1.4 2 2.2 1.1 0.9 1.7 1.6 1.2 1.6-0.4 0 0.2 0.9 1.3 2 1.1 1.1 1.8 2.4 1.5 3-0.3 0.5-0.2 1 0.2 1 0.5 0 1.5 1.9 2.3 4.2 0.8 2.4 1.4 5 1.3 5.8 0 0.8 0.4 1.9 0.8 2.5 0.5 0.5 0.8 2.6 0.7 4.5 0 1.9 0.2 5.2 0.6 7.2 0.3 2.1 0.3 3.6-0.2 3.4-0.4-0.2-0.7 1.7-0.8 4.2-0.1 2.6-0.4 6.3-0.8 8.2-0.5 1.9-1.3 4.1-1.9 4.9-0.7 0.8-1.3 2.4-1.5 3.5-0.1 1.2-0.7 2.2-1.2 2.3-0.6 0.2-1 1-1 1.8 0 0.8-0.5 1.5-1 1.5-0.6 0-0.8 0.4-0.5 1 0.3 0.5 0 1-0.5 1-0.6 0-1 0.6-1 1.2 0 0.7-0.9 2-2 2.8-1.1 0.8-2 1.9-2 2.5 0 0.5-1 2-2.3 3.3-1.2 1.2-2.8 2.2-3.5 2.2-0.6 0-1.5 0.7-2 1.6-0.4 0.9-2.3 2.5-4.2 3.6-1.9 1.2-4.1 2.1-4.8 2.2-0.6 0.1-1.2 0.4-1.2 0.8 0 0.5-0.9 0.8-2 0.8-1.1 0-2.2 0.4-2.5 1-0.3 0.5-1 0.8-1.5 0.5-0.6-0.3-1-0.1-1 0.5 0 0.5-0.7 0.8-1.5 0.5-0.8-0.3-1.5-0.1-1.5 0.5 0 0.5-0.8 0.9-1.8 0.9-0.9-0.1-1.9 0-2.2 0.1-0.3 0.1-1.9 0.5-3.5 0.7-1.6 0.3-6.1 0.5-10 0.6-3.9 0.1-9.3-0.3-12-0.7-2.8-0.4-5.5-1.2-6-1.7-0.6-0.5-1.4-0.6-1.8-0.1-0.4 0.4-0.7 0.1-0.7-0.6 0-0.6-0.6-1.2-1.3-1.1-0.6 0.1-2.2-0.2-3.5-0.5-1.2-0.3-2.2-1.2-2.2-1.9 0-0.6-0.3-0.9-0.7-0.5-0.4 0.4-2 0-3.6-1-1.5-0.9-2.7-2-2.7-2.5 0-0.4-0.6-0.7-1.3-0.7-0.6-0.1-3.8-2.8-7-6-3.1-3.3-5.7-6.5-5.7-7 0-0.6-0.5-1-1-1-0.6 0-0.8-0.3-0.5-0.8 0.2-0.4-0.4-1.7-1.5-3-1.1-1.2-1.7-2.4-1.3-2.7 0.3-0.3 0.2-0.5-0.3-0.5-0.5 0-1-1-1.1-2.2-0.2-1.3-0.8-2.6-1.5-3-0.7-0.4-1-0.8-0.6-0.8 0.5 0 0.5-0.6 0.1-1.3-0.4-0.6-0.6-2-0.5-3 0.1-0.9-0.3-1.7-0.8-1.7-0.6 0-0.9-0.8-0.9-1.8 0.1-0.9 0-2.2-0.2-2.7-0.1-0.6-0.3-4.7-0.3-9.2-0.1-4.9 0.3-8.3 0.9-8.3 0.6 0 0.7-1.1 0.2-3-0.4-1.8-0.3-3 0.3-3 0.5 0 0.9-1.2 0.9-2.8-0.1-1.5 0.4-2.8 1-3 0.6-0.1 0.9-0.7 0.6-1.2-0.3-0.6-0.1-1 0.5-1 0.5 0 0.8-0.5 0.5-1-0.3-0.6 0.2-1.5 1-2 0.8-0.6 1.3-1.5 1-2-0.3-0.6-0.1-1 0.5-1 0.5 0 0.8-0.5 0.5-1-0.3-0.6 0.2-1.2 1-1.5 0.8-0.3 1.5-1.1 1.5-1.8 0-0.6 2-3.6 4.4-6.5 2.4-2.8 5.1-5.2 6-5.2 0.9 0 1.8-0.7 2.1-1.5 0.3-0.8 0.9-1.3 1.5-1 0.5 0.3 1.4-0.3 2-1.3 0.5-0.9 1-1.4 1-1 0 0.5 0.7 0.1 1.5-0.7 0.8-0.8 1.9-1.3 2.5-1 0.5 0.3 1.1 0 1.2-0.5 0.2-0.6 1.4-1.2 2.8-1.5 1.4-0.3 2.9-0.9 3.5-1.4 0.5-0.5 2.6-1.2 4.5-1.6 1.9-0.4 5.3-1.1 7.5-1.5 2.2-0.5 6.9-0.7 10.5-0.4zm-162 44.9l-3.5 2.2c-1.9 1.3-3.7 2.3-4 2.3-0.3 0-0.5-0.5-0.5-1 0-0.5 0.3-0.8 0.7-0.6 0.5 0.3 1.9-0.4 5.8-3.3l-2.5-2.8c-2.4-2.7-2.3-2.7 4 3.2zm16 5.5c1.9 0 3.9 0.3 4.3 0.7 0.5 0.4 2.7 0.9 5 1 2.3 0.1 6.2 0.5 8.7 0.8 2.5 0.4 6.2 0.6 8.2 0.6 2.1-0.1 3.8 0.2 3.8 0.6 0 0.5 2.6 0.8 5.8 0.9 3.1 0.1 8.8 0.4 12.7 0.8 3.9 0.3 8.5 0.6 10.2 0.6 1.8 0 3.9 0.3 4.5 0.7 0.7 0.5 3.5 0.8 11.3 0.8v4.5c0.1 2.5 0.5 5.2 1 6 0.7 1.1 0.6 1.3-0.3 0.7-0.6-0.4-1.4-0.2-1.7 0.3-0.3 0.5-1.4 0.8-2.5 0.5-1.1-0.3-2 0-2 0.5 0 0.5-0.7 0.8-1.5 0.5-0.8-0.3-1.7 0-2 0.5-0.3 0.5-1.2 0.8-2 0.5-0.8-0.3-1.5 0-1.5 0.5 0 0.5-0.6 0.8-1.3 0.6-0.6-0.3-1.7-0.1-2.2 0.4-0.6 0.5-2.6 1.1-4.5 1.5-1.9 0.4-5 0.9-6.8 1.1-1.7 0.2-3.4 0.9-3.7 1.4-0.3 0.5-1.9 1-3.5 1-1.6 0-3.2 0.5-3.5 1-0.3 0.5-1.4 0.8-2.5 0.5-1.1-0.3-2 0-2 0.5 0 0.5-0.7 0.8-1.5 0.5-0.8-0.3-1.5 0-1.5 0.5 0 0.5-0.6 0.9-1.3 0.8-0.6-0.1-2.8 0.3-4.7 1-1.9 0.6-4.6 1.3-6 1.6-1.4 0.2-3.1 1.2-3.7 2.2-1 1.5-1 2.3 0.2 4.1 1.2 1.9 2.3 2.3 5.7 2 2.4-0.1 4.5-0.5 4.8-0.9 0.3-0.3 1.6-0.8 3-1 1.4-0.2 2.9-0.6 3.5-1 0.5-0.3 2.8-1 5-1.4 2.2-0.5 4.2-0.9 4.5-0.9 0.3-0.1 1.2-0.5 2-0.9 0.8-0.3 2.6-0.8 4-0.9 1.4-0.2 3.1-0.6 3.7-1 0.7-0.4 1.8-0.4 2.4-0.1 0.6 0.3 1-0.1 1-0.8-0.1-0.7 0.1-1 0.4-0.6 0.3 0.5 2.2 0.1 4.2-0.7 2.1-0.9 4-1.3 4.3-1.1 0.3 0.3 0.9 0.2 1.5-0.4 0.5-0.5 2.4-1 4-1.2 1.6-0.1 4.1-0.8 5.5-1.5q2.5-1.2 4.2-0.2c1 0.5 2 2.2 2.3 3.9 0.3 1.6 0.5 3.3 0.6 3.7 0.1 0.5 0.5 1.6 1 2.5 0.7 1.3 0.5 1.8-0.6 1.8-0.8 0-1.5 0.5-1.5 1 0 0.5-0.5 0.8-1 0.5-0.6-0.3-1 0.1-1 0.7 0 0.7-0.2 1-0.5 0.5-0.3-0.4-1.5 0.2-2.8 1.3-1.2 1.1-2.5 1.7-3 1.5-0.4-0.3-0.7 0-0.7 0.5 0 0.5-0.7 1-1.5 1-0.8 0-1.5 0.3-1.5 0.7 0 0.5-1.6 1.7-3.7 2.8-2.1 1.1-4 2.2-4.3 2.6-0.3 0.3-2.2 1.5-4.3 2.7-2 1.2-3.7 1.9-3.7 1.4 0-0.4-0.9 0.3-2 1.5-1.1 1.3-2.5 2.1-3 1.8-0.6-0.3-1.2 0.2-1.5 1-0.3 0.8-1 1.3-1.5 1-0.6-0.3-1 0-1 0.5 0 0.5-0.6 1-1.3 1-0.6-0.1-1.8 0.6-2.5 1.5-0.6 0.8-1.7 1.3-2.2 1-0.6-0.3-1 0-1 0.5 0 0.5-0.7 1-1.5 1-0.8 0-1.5 0.5-1.5 1 0 0.5-0.7 1-1.5 1-0.8 0-1.5 0.5-1.5 1 0 0.5-0.7 1-1.5 1-0.8 0-1.5 0.5-1.5 1 0 0.5-0.5 0.8-1 0.5-0.6-0.3-1 0-1 0.5 0 0.5-0.5 0.8-1 0.5-0.6-0.3-1.2 0.2-1.5 1-0.3 0.8-1.4 1.5-2.5 1.5-1.1 0-2.2 0.6-2.5 1.2-0.4 0.9-2.7 1.2-7.8 1-3.9-0.2-8-0.4-9-0.5-0.9-0.1-1.7-0.5-1.7-1 0-0.4-1.6-0.9-3.5-1.2-1.9-0.3-3.5-1-3.5-1.5 0-0.5-0.3-0.8-0.8-0.5-0.4 0.2-1.8-0.6-3.2-1.8-1.3-1.2-2.8-2.1-3.2-2-0.5 0.2-2.6-1.7-4.8-4.2-2.2-2.5-3.8-5-3.5-5.5 0.3-0.5-0.3-1.2-1.3-1.5-0.9-0.3-1.4-0.9-1-1.3 0.5-0.4 0.2-1.3-0.5-2-0.6-0.7-0.8-1.3-0.2-1.3 0.5 0.1 0.4-0.3-0.2-0.7-0.7-0.4-1.5-2.3-1.7-4.2-0.2-1.9-0.7-4.2-1-5-0.4-0.8-0.5-4.2-0.3-7.5 0.2-3.3 0.7-7.8 1.1-10 0.4-2.2 1.2-4.3 1.9-4.6 0.7-0.4 0.9-1.2 0.4-1.8-0.4-0.6 0-1.8 0.8-2.6 0.8-0.8 1.2-1.7 0.7-2-0.4-0.3-0.1-0.5 0.5-0.5 0.7 0 1.3-0.7 1.3-1.5 0-0.8 0.7-1.8 1.6-2.3 0.9-0.4 1.6-1.2 1.7-1.7 0.1-0.5 1.3-2.2 2.7-3.7 1.4-1.5 2.8-2.5 3.2-2.3 0.5 0.3 0.9 0 1-0.6 0.2-0.6 2.5-1.7 5.3-2.4 2.7-0.8 6.6-1.4 8.5-1.5zm288.3 1.3c5.7-0.1 10.4 0.3 10.5 0.8 0.1 0.5 0.8 0.7 1.4 0.5 0.7-0.2 2.4 0.2 3.8 0.9 1.4 0.7 3.4 2.4 4.5 3.7 1.1 1.2 2.2 2.6 2.3 3 0.1 0.5 1 1.5 1.9 2.4 1.3 1.1 1.3 1.4 0.3 0.9q-1.5-0.6 0.2 0.7c1 0.7 1.7 2.3 1.8 3.5 0 1.3 0.4 2.3 1 2.3 0.6 0 0.7 1 0.3 2.2-0.5 1.8-0.4 2.1 0.7 1.3 1.1-0.8 1.2-0.5 0.7 1.2-0.4 1.3-0.3 2.3 0.3 2.3 0.6 0 1 4.5 1 11.5 0 7-0.4 11.5-1 11.5-0.6 0-0.8 0.7-0.5 1.5 0.3 0.8-0.1 1.5-0.8 1.5-0.6 0-0.9 0.3-0.5 0.7 0.4 0.5 0.3 2-0.3 3.5-0.5 1.6-1.4 2.8-1.9 2.8-0.6 0-1 0.7-1 1.5 0 0.8-0.5 1.5-1 1.5-0.6 0-1 0.6-1 1.2 0.1 0.7-2.3 3.4-5.2 6-2.9 2.6-5.6 4.5-6.1 4.3-0.4-0.3-0.7 0-0.7 0.5 0 0.5-0.9 1-2 1-1.1 0-2.2 0.5-2.5 1-0.3 0.5-1 0.8-1.5 0.5-0.6-0.3-1.2 0-1.5 0.5-0.3 0.5-1.2 0.8-2 0.5-0.8-0.3-1.7-0.2-1.9 0.2-0.2 0.5-3.5 0.7-7.3 0.6-3.7-0.1-7-0.3-7.3-0.4-0.3-0.1-0.8-0.1-1.3 0-0.4 0-0.7-0.4-0.7-0.9 0-0.5-0.5-0.8-1-0.5-0.6 0.3-1.9-0.4-3-1.5-1.1-1.1-2.2-1.7-2.5-1.3-0.3 0.5-0.5 0.2-0.5-0.5 0-0.6-0.3-1-0.8-0.7-0.4 0.2-1.7-0.4-3-1.5-1.2-1.1-2.2-1.8-2.2-1.5 0 0.3-1.5-0.5-3.3-1.7-1.7-1.2-3.4-2.6-3.7-3.1-0.3-0.5-1-0.8-1.5-0.8-0.6 0.1-2.5-0.7-4.3-1.6-1.7-1-3.2-2.1-3.2-2.6 0-0.4-0.7-0.7-1.5-0.7-0.8 0-1.5-0.5-1.5-1 0-0.5-0.5-0.8-1-0.5-0.6 0.3-1.8-0.3-2.7-1.3-0.9-0.9-2.4-1.8-3.2-1.9-0.9-0.1-1.7-0.7-1.9-1.3-0.1-0.5-0.9-1-1.7-1-0.8 0-2.2-0.7-3-1.5-0.8-0.8-1.7-1.5-2-1.5-0.3 0-1.6-0.6-3-1.3-1.4-0.6-2.5-1.5-2.5-2 0-0.4-0.7-0.7-1.5-0.7-0.8 0-1.5-0.5-1.5-1 0-0.5-0.5-0.8-1-0.5-0.6 0.3-1.8-0.4-2.8-1.5-0.9-1-2-1.7-2.5-1.5-0.4 0.3-0.7 0-0.7-0.5 0-0.5-0.7-1-1.5-1-0.8 0-1.5-0.9-1.5-2 0-1.1 0.4-2 1-2 0.5 0 0.8-0.5 0.5-1-0.3-0.5 0.1-1.6 0.8-2.3 0.7-0.6 1.4-1.5 1.5-2 0.1-0.4 0.2-1.4 0.2-2.2 0-1.2 0.8-1.4 3.7-0.9 2.1 0.3 4.1 1.1 4.4 1.8 0.4 0.6 1.2 0.8 1.8 0.3 0.6-0.4 1.1-0.2 1.1 0.3 0 0.5 0.7 0.8 1.5 0.5 0.8-0.3 2.2 0.1 3 0.7 0.9 0.7 1.5 0.8 1.5 0.3 0-0.5 0.5-0.4 1.2 0.2 0.7 0.7 1.6 1 2 0.5 0.4-0.4 1.3-0.1 2 0.5 0.7 0.7 1.6 1 2 0.5 0.4-0.4 1.5 0 2.3 0.8 0.9 0.8 1.5 1 1.5 0.5 0-0.5 0.6-0.4 1.5 0.2 0.8 0.7 1.8 1.1 2.2 0.9 0.5-0.2 2.6 0.4 4.8 1.4 2.2 1 4.6 1.6 5.2 1.4 0.7-0.2 1.5 0.1 1.8 0.6 0.3 0.5 0.9 0.8 1.5 0.5 0.5-0.3 2.2 0 3.7 0.7 1.6 0.6 3.4 1 4 1 0.7-0.1 1.3 0.3 1.3 0.8 0 0.5 0.7 0.8 1.5 0.5 0.8-0.3 2.1-0.1 2.7 0.3 0.7 0.5 1.7 0.8 2.3 0.7 0.5 0 2-0.4 3.2-0.8 1.4-0.4 2.3-1.5 2.3-2.7 0-1.1-1-2.9-2.3-4-1.2-1.1-2.5-1.7-3-1.5-0.4 0.3-0.7 0-0.7-0.5 0-0.5-0.6-0.9-1.3-0.8-0.6 0-2.2 0-3.5 0q-2.2-0.2-1.5-1.4c0.6-0.9 0.2-1.1-1.2-0.5-1.1 0.4-2.5 0.3-3-0.3-0.6-0.5-3-1.2-5.5-1.6-2.5-0.3-5.6-1.1-7-1.7-1.4-0.6-3.6-1.2-5-1.3-1.4-0.2-3.2-0.7-4-1-0.8-0.4-2.4-0.9-3.5-1.1-1.1-0.2-2.7-0.6-3.5-1-0.8-0.3-2.1-0.5-2.8-0.5-0.6 0.1-1.4-0.3-1.7-0.8-0.3-0.5-1.2-0.8-2-0.5-0.8 0.3-1.7 0-2-0.5-0.3-0.5-1-0.8-1.5-0.5-0.6 0.3-1.2 0-1.5-0.5-0.3-0.5-1.1-0.8-1.8-0.5-0.6 0.3-2-0.3-3-1.5-1.3-1.5-1.5-2.5-0.7-4 0.5-1.1 0.8-3.1 0.5-4.5-0.5-2.4-0.3-2.5 4.7-2.5 2.9 0 8.2-0.2 11.8-0.5 3.6-0.3 9.2-0.8 12.5-1 3.3-0.3 9.1-1 13-1.5 3.8-0.6 8.2-0.8 9.7-0.5 1.6 0.3 3 0 3.3-0.5 0.3-0.5 2.3-0.9 4.4-0.8 2.2 0.1 4.2-0.1 4.5-0.3 0.3-0.3 5.2-0.6 10.9-0.6zm-200.8 45.6c1.1 0.7 1.9 1.7 1.7 2.2-0.1 0.5 1.1 2.1 2.8 3.6 1.6 1.6 2.9 3.3 3 3.8 0 0.5-0.9 1.7-2 2.5-1.1 0.8-2 2-2 2.5 0 0.5-1.5 2.5-3.5 4.2-1.9 1.8-3.5 3.8-3.5 4.3 0 0.5-1.1 1.9-2.5 3-1.4 1.1-2.5 2.3-2.5 2.7 0 0.5-3.1 3.9-7 7.8-3.8 3.8-6.9 7.5-7 8 0 0.5-1.9 3.1-4.3 5.6-2.3 2.6-4.3 5.4-4.5 6.3-0.1 0.9 0.4 2.3 1 3.1 0.7 0.9 2.2 1.6 3.3 1.6 1.1 0 3-0.8 4.2-1.8 1.2-1 2.2-2.1 2.3-2.6 0-0.4 1-1.9 2.2-3.3 1.3-1.5 3.8-4.2 5.5-6 1.8-1.9 3.3-3.9 3.3-4.4 0-0.5 1.1-1.9 2.5-3 1.4-1.1 2.5-2.5 2.5-3 0-0.5 1.4-2.1 3-3.5 1.6-1.4 2.8-2.7 2.5-3-0.3-0.3 1.1-1.6 3-3 1.9-1.4 3.4-2.9 3.2-3.3-0.1-0.5 1.5-2.7 7.3-9.2l2.7 2.5c1.6 1.4 3.2 2.2 3.6 1.8 0.4-0.5 0.7-0.2 0.7 0.4 0 0.7 1.4 1.8 3 2.3q3 1 2.5 2.5c-0.3 0.8-1 1.5-1.5 1.5-0.6 0-0.8 0.7-0.5 1.5 0.3 0.8 0.2 1.5-0.3 1.5-0.4 0-0.8 1-0.9 2.2-0.2 1.3-0.6 2.5-1 2.8-0.5 0.3-1 1.4-1.1 2.5-0.2 1.1-0.8 2.1-1.3 2.2-0.5 0.2-0.7 0.8-0.4 1.3 0.3 0.5 0 1-0.5 1-0.6 0-0.8 0.7-0.5 1.5 0.3 0.8 0 1.5-0.5 1.5-0.6 0-0.8 0.5-0.5 1 0.3 0.5 0 1-0.5 1-0.6 0-0.8 0.7-0.5 1.5 0.3 0.8 0 1.5-0.5 1.5-0.6 0-0.8 0.6-0.6 1.2 0.3 0.7-0.2 2.2-0.9 3.3-0.8 1.1-1.1 2.3-0.7 2.8 0.4 0.4 0.1 0.7-0.6 0.7-0.6 0-0.9 0.6-0.6 1.2 0.3 0.7-0.2 1.9-1 2.5-0.9 0.7-1.4 2-1.1 2.8 0.3 0.8 0 1.7-0.5 2-0.6 0.3-0.8 1-0.5 1.5 0.3 0.5 0.2 1-0.3 1-0.4 0-0.8 0.8-0.9 1.7-0.1 1-0.7 3.1-1.4 4.8-0.7 1.6-1.4 3.9-1.6 5-0.2 1.1-0.8 2.1-1.3 2.2-0.6 0.2-1 1.2-1 2.3 0 1.1-0.5 2-1 2-0.6 0-0.8 0.5-0.5 1 0.3 0.5 0 1-0.5 1-0.6 0-1 0.7-1 1.5 0 0.8-0.3 1.5-0.8 1.5-0.4 0-1.4 1.1-2.2 2.4-0.8 1.4-1.8 2.3-2.3 2.1-0.4-0.3-1.4 0.6-2.2 2-0.8 1.4-2 2.3-2.5 2-0.6-0.3-1 0-1 0.5 0 0.5-1 1.3-2.3 1.7-1.2 0.4-2.8 0.6-3.5 0.5-0.6-0.1-1.2 0.3-1.2 0.8 0 0.5-0.5 0.8-1 0.5-0.6-0.3-1.6-0.2-2.3 0.2-0.6 0.4-3.2 0.9-5.7 1.1-2.5 0.1-5 0.2-5.5 0.3-0.6 0-2.6-0.2-4.7-0.3-2-0.2-4-0.6-4.5-1-0.4-0.4-1.4-0.5-2.1-0.2-0.6 0.2-1.2-0.1-1.2-0.6 0-0.5-0.6-1-1.3-0.9-0.6 0.1-2.2-0.2-3.5-0.5-1.2-0.3-2.2-1.1-2.2-1.6 0-0.5-0.9-1-2-1-1.1 0-3-1-4.2-2.3-1.3-1.2-3.2-2.7-4.3-3.2-1.1-0.6-2.6-2.3-3.3-3.8-0.6-1.5-1.7-2.7-2.2-2.7-0.6 0-1-0.7-1-1.5 0-0.8-0.5-1.5-1-1.5-0.6 0-0.8-0.5-0.5-1 0.3-0.5 0-1-0.7-1-0.6 0-0.8-0.2-0.5-0.5 0.4-0.3 0-1.2-0.8-2-0.8-0.8-2-3.4-2.6-5.8-0.6-2.3-1.1-6.9-1.1-10.2 0-3.3 0-6.8 0.1-7.8 0-0.9 0.5-1.7 1.1-1.7 0.5 0 0.8-0.7 0.5-1.5-0.3-0.8-0.1-1.5 0.5-1.5 0.5 0 1-0.9 1-2 0-1.1 0.4-2 1-2 0.5 0 0.8-0.5 0.5-1-0.3-0.6 0.2-1.2 1-1.5 0.8-0.3 1.3-0.8 1-1.3-0.2-0.4 0.4-1.6 1.6-2.7 1.1-1.1 1.9-1.5 1.9-1 0 0.5 1-0.1 2.4-1.5 1.3-1.4 3.1-3.1 4-3.8 0.9-0.6 1.8-0.9 2.1-0.5 0.3 0.5 0.5 0.2 0.5-0.5 0-0.6 0.4-1 1-0.7 0.5 0.3 1.2-0.2 1.5-1 0.3-0.8 0.9-1.3 1.5-1 0.5 0.3 1 0 1-0.5 0-0.6 0.4-1 1-1 0.5 0 1.8-0.7 2.7-1.5 1-0.8 2-1.4 2.3-1.3 0.3 0.2 1.7-0.7 3-1.9 1.4-1.2 2.8-2 3.2-1.8 0.5 0.3 0.8 0.2 0.8-0.3 0-0.4 2.1-1.8 4.7-3.2 2.6-1.4 5.3-3.1 6-3.8 0.7-0.6 1.7-1 2.3-0.7 0.5 0.3 1.2-0.2 1.5-1 0.3-0.8 0.9-1.3 1.5-1 0.5 0.3 1 0 1-0.5 0-0.6 0.4-0.8 1-0.5 0.5 0.3 1 0 1-0.5 0-0.6 0.4-0.8 1-0.5 0.5 0.3 1 0 1-0.5 0-0.6 1.4-1.7 3-2.5 1.6-0.8 3.2-1.5 3.5-1.5 0.3 0 1.2-0.7 2.1-1.5 0.8-0.8 2.2-1.5 3-1.5 0.8 0 1.4-0.5 1.4-1 0-0.6 0.9-1 2-1 1.3 0 1.8-0.4 1.3-1.3-0.5-0.8-0.1-0.8 1.2 0.2zm113-0.3c0.8 0.3 1.4 1.1 1.4 1.8 0 0.6 0.4 0.8 0.8 0.4 0.4-0.4 1.4 0 2.1 1 0.9 1 1.1 1.1 0.7 0.2-0.4-0.9-0.2-0.8 0.7 0.2 0.7 1 1.7 1.4 2.1 1 0.4-0.4 0.7-0.1 0.7 0.5 0 0.7 0.4 1.1 1 0.8 0.5-0.3 1.2 0.2 1.5 1 0.3 0.8 0.9 1.3 1.5 1 0.5-0.3 1.7 0.2 2.5 1 0.8 0.8 1.7 1.4 2 1.2 0.2-0.1 1.3 0.5 2.3 1.3 1 0.8 2.5 1.7 3.3 1.8 0.8 0.2 1.6 0.8 1.9 1.4 0.3 0.5 0.8 0.8 1.2 0.6 0.4-0.1 1.6 0.5 2.8 1.4 1.1 1 2.2 1.5 2.5 1 0.3-0.4 0.5-0.1 0.5 0.5 0 0.7 1.1 1.5 2.5 1.8 1.4 0.3 2.5 0.9 2.5 1.5 0 0.5 0.3 0.8 0.7 0.6 0.5-0.2 3.4 1.3 6.5 3.5 3.2 2.1 6.2 3.9 6.8 3.9 0.5 0 1 0.4 1 1 0 0.5 0.7 1 1.5 1 0.8 0 1.5 0.3 1.5 0.7 0 0.5 1.6 1.4 3.5 2 1.9 0.7 5.7 3.5 8.5 6.3 2.7 2.7 4.8 5.3 4.5 5.7-0.3 0.5 0.2 1.5 1 2.3 0.8 0.8 1.6 2.6 1.9 4 0.2 1.4 0.5 2.5 0.7 2.5 0.1 0 0.3 2.9 0.5 6.5 0.2 3.6 0 7.2-0.3 8-0.3 0.8-0.7 2.8-0.9 4.5-0.3 1.6-0.9 3.1-1.4 3.2-0.6 0.2-0.8 0.8-0.5 1.3 0.3 0.5-0.4 2.8-1.5 5-1.1 2.2-2.5 4-3 4-0.6 0-1 0.6-1 1.2 0 0.7-1.4 2.6-3.1 4.3-1.8 1.6-2.9 2.3-2.5 1.5 0.4-0.8-0.4-0.3-1.8 1.2-1.4 1.6-2.6 2.5-2.6 2 0-0.4-0.5 0.1-1 1-0.6 1-1.5 1.6-2 1.3-0.6-0.3-1 0-1 0.5 0 0.5-0.5 0.8-1 0.5-0.6-0.3-1.1 0-1.3 0.5-0.1 0.6-1.6 1.3-3.2 1.5-1.6 0.2-3.2 0.4-3.5 0.5-0.3 0.2-0.8 0.2-1.3 0.1-0.4 0-1.3 0.3-2 0.8-0.6 0.5-5.5 0.8-10.8 0.8-6-0.1-10.1-0.7-11-1.4-0.8-0.7-1.7-1-2.2-0.5-0.4 0.4-0.7 0.2-0.7-0.3 0-0.6-0.6-1-1.3-1.1-0.6 0-2.4-0.8-4-1.7-1.5-0.9-2.7-2.2-2.7-2.7 0-0.5-0.5-1-1-1-0.6 0-2.3-1.2-3.9-2.8-1.7-1.5-2.8-3-2.5-3.5 0.2-0.4-0.1-0.7-0.6-0.7-0.6 0-2.3-2.8-3.9-6.3-1.6-3.4-3.1-7.1-3.3-8.2-0.2-1.1-0.5-2.2-0.8-2.5-0.3-0.3-1.1-1.7-1.8-3.3-0.6-1.5-1-3.2-0.7-3.7 0.3-0.6 0-1-0.5-1-0.6 0-1.3-1.5-1.7-3.3-0.4-1.7-0.6-3.5-0.5-4 0.1-0.4-0.3-0.7-0.8-0.7-0.6 0-0.8-0.7-0.5-1.5 0.3-0.8 0-1.5-0.5-1.5-0.6 0-0.8-0.5-0.5-1 0.3-0.6 0-1-0.5-1-0.6 0-0.9-0.3-0.8-0.8 0.1-0.4-0.3-1.7-1-3-0.7-1.2-0.9-2.2-0.5-2.2 0.5 0.1 0.1-0.6-0.7-1.5-0.8-0.9-1.1-1.6-0.5-1.6 0.5 0.1 0.5-0.3-0.2-0.7-0.6-0.4-1.3-1.6-1.5-2.7-0.1-1.1-0.6-2.2-1.1-2.5-0.4-0.3-0.8-1.5-1-2.8-0.1-1.2-0.5-2.2-1-2.2-0.4 0-0.7-0.9-0.7-2 0-1.1-0.5-2.2-1-2.5-0.6-0.3-0.8-1-0.5-1.5 0.3-0.6 0-1-0.5-1-0.6 0-0.4-0.6 0.2-1.4 0.7-0.8 1.6-1.2 2-1 0.5 0.2 0.8-0.1 0.8-0.6 0-0.6 0.7-1 1.5-1 0.8 0 1.6-0.5 1.7-1 0.2-0.6 1.2-1.3 2.3-1.5 1.1-0.2 2.3-0.4 2.7-0.4 0.5-0.1 0.5-0.7 0.2-1.4-0.3-0.6 0.4-0.1 1.6 1.3 1.2 1.4 4 4.7 6.3 7.3 2.3 2.7 6.4 7.2 9 10 2.7 2.9 6.5 6.9 8.5 9 2.1 2.1 3.6 4.3 3.4 4.8-0.1 0.5 2.1 2.8 4.9 5.1 2.7 2.4 5.2 5 5.4 5.8q0.5 1.5 4.4 1.5c2.1 0 3.8-0.2 3.6-0.5-0.2-0.3 0-1.2 0.5-2 0.6-1 0-2.6-2.1-5-1.6-1.9-4-4.5-5.2-5.8-1.2-1.2-2.2-2.6-2.3-3 0-0.4-4.6-5.4-10.1-11.2-5.6-5.8-10-10.7-9.8-11 0.2-0.3-2.3-3.1-11.5-12l3-2.5c1.6-1.4 3-3.2 3-4 0-0.8 0.7-1.7 1.5-2 0.8-0.3 1.3-1 1-1.5-0.3-0.6 0.2-0.7 1-0.4zm-36.4 25.9c0.5 0.3 0.8 1.1 0.6 1.7-0.2 0.7 0.2 1.9 1 2.5 0.7 0.7 1.1 1.8 0.8 2.3-0.3 0.5-0.1 1 0.5 1 0.5 0 0.8 0.5 0.5 1-0.3 0.5-0.1 1.2 0.5 1.5 0.5 0.3 1 1.4 1 2.5 0 1.1 0.4 2.1 0.9 2.2 0.5 0.2 1.1 1.2 1.3 2.3 0.1 1.1 0.6 2.2 1.1 2.5 0.4 0.3 0.8 1.5 1 2.8 0.1 1.2 0.5 2.2 0.9 2.2 0.5 0 0.8 0.9 0.8 2 0 1.1 0.4 2.2 1 2.5 0.5 0.3 0.8 1.2 0.5 2-0.3 0.8-0.1 1.5 0.5 1.5 0.5 0 0.8 0.5 0.5 1-0.3 0.5-0.1 1.2 0.5 1.5 0.5 0.3 0.8 1 0.5 1.5-0.3 0.5-0.1 1.2 0.5 1.5 0.5 0.3 0.8 1 0.5 1.5-0.3 0.5-0.1 1 0.5 1 0.5 0 0.8 0.7 0.5 1.5-0.3 0.8-0.1 1.5 0.5 1.5 0.5 0 0.9 0.3 0.8 0.7-0.1 0.5 0.4 2.1 1.1 3.8 0.7 1.6 1.3 3.7 1.4 4.5 0.2 0.8 0.6 2.1 1 2.7 0.4 0.7 0.5 1.8 0.2 2.3-0.3 0.5-0.1 1.2 0.5 1.5 0.5 0.3 1 2.7 1 5.5 0 2.7-0.5 5.2-1 5.5-0.6 0.3-0.8 1-0.5 1.5 0.3 0.5-0.1 1.7-0.8 2.5-0.6 0.9-0.9 1.6-0.5 1.5 0.5 0-0.1 1.8-1.2 4-1.1 2.2-2.5 4-3 4-0.6 0-1 0.6-1 1.2 0 0.7-2.7 3.9-6 7-3.3 3.2-6.7 5.8-7.5 5.8-0.8 0-1.5 0.5-1.5 1 0 0.5-1.5 1.3-3.3 1.6-1.7 0.4-3.7 0.9-4.2 1.2-0.6 0.4-1.7 0.8-2.5 1-0.8 0.2-3.5 0.6-6 0.9-2.5 0.3-5.6 0.5-7 0.4-1.4 0-3.6-0.1-5-0.1-1.4 0-3.1-0.5-3.8-1-0.6-0.6-1.7-0.8-2.2-0.5-0.6 0.3-1 0-1-0.5 0-0.5-0.5-0.8-1-0.5-0.6 0.3-1.2 0-1.5-0.5-0.3-0.5-1.4-1-2.5-1-1.1 0-3.6-1.7-5.7-3.8-2-2-3.3-3-2.8-2.2 0.5 0.8-0.4 0.4-1.9-1-1.4-1.4-2.6-2.8-2.6-3.3 0-0.4-1.1-1.9-2.5-3.5-1.4-1.5-2.3-3-2-3.5 0.3-0.4 0.2-0.7-0.3-0.7-0.4 0-1.3-1.1-2-2.5-0.6-1.4-1-3-0.7-3.5 0.3-0.5 0-1.2-0.5-1.5-0.6-0.3-0.8-1-0.5-1.5 0.3-0.5 0.2-1-0.3-1-0.4 0-0.6-3.5-0.6-7.8 0.1-4.2 0.4-8.9 0.8-10.5 0.3-1.5 1-2.7 1.6-2.7 0.5 0 0.8-0.6 0.6-1.3-0.3-0.6 0.2-2.6 1.1-4.2 0.8-1.7 1.7-4.1 2-5.5 0.2-1.4 1-2.8 1.6-3.1 0.7-0.4 0.9-1.2 0.4-1.8-0.4-0.6-0.3-1.1 0.3-1.1 0.5 0 1-1.1 1-2.5 0-1.4 0.4-2.6 1-2.8 0.5-0.1 1.1-1.3 1.4-2.7 0.2-1.4 0.5-2.5 0.6-2.5 0.1 0 0.4-1.1 0.6-2.5 0.3-1.4 0.8-2.7 1.2-3 0.4-0.3 0.9-1.4 1-2.5 0.2-1.1 0.9-2.3 1.5-2.7 0.7-0.4 0.7-0.8 0.2-0.7-0.6 0-0.3-0.7 0.5-1.6 0.8-0.9 1.2-1.6 0.7-1.5-0.4 0 0.1-1.5 1-3.3 0.9-1.7 1.7-3.4 1.6-3.7-0.1-0.3 0.5-0.5 1.3-0.5 0.8 0 1.4 0.3 1.4 0.7 0 0.5 1.1 0.6 2.5 0.3 1.4-0.3 2.7 0 3 0.5 0.3 0.5 2.1 0.8 4.1 0.6 2.2-0.2 3.5 0 3.5 0.8 0 0.6 0.4 0.4 0.9-0.4 0.6-1 0.8 8 0.6 24.5-0.3 17 0 26.7 0.6 28 0.6 1.1 1.6 2.3 2.2 2.6 0.6 0.4 1.9 0.4 2.9 0 1-0.3 2.1-1.5 2.3-2.6 0.3-1.1 0.6-13.5 0.9-53l3-0.2c1.6-0.1 4.1-0.3 5.5-0.6 1.4-0.2 2.6-0.5 2.7-0.6 0.2 0 0.7-0.2 1.2-0.4 0.5-0.1 1.2-0.5 1.6-0.9 0.4-0.4 1.1-0.5 1.6-0.3z"/>
		<path id="Path 6" class="s2" d="m418.2-353.5c-0.7 4.1-2.1 9.3-3.2 11.5-1.1 2.2-2 4.6-2 5.3 0 0.6 3.6 9.1 8.1 18.7 4.4 9.6 8.1 17.6 8.2 17.7 0.1 0.1 0.3-8 0.5-18 0.2-11.8-0.1-19.8-0.8-22.7-0.7-2.5-2.4-6.9-3.8-9.8-1.5-2.9-3-5.2-3.4-5.2-0.5 0-0.6-0.4-0.3-1 0.3-0.6 0-1-0.5-1-0.5 0-0.8-0.4-0.5-1 0.3-0.6 0.1-1.2-0.3-1.5-0.4-0.2-1.3 2.9-2 7zm0.8 60.5c0 5.5 0 10.2 0 10.5 0 0.3-0.7 3.3-1.6 6.8-0.8 3.4-2.6 8.1-4 10.5-2.1 3.7-2.2 4.5-1 6.5 0.7 1.2 4.6 8.4 8.7 16 4.1 7.6 7.7 13.8 8.2 13.7 0.4 0 0.7-12.3 0.7-27.2v-27.3c-7.1-15.1-9.6-19.5-10.1-19.5-0.5 0-0.9 4.5-0.9 10zm0.2 77.5c-0.1 8.3-0.7 17.8-1.2 21.3-0.6 3.4-1.5 7.4-2.1 9-0.6 1.5-1.7 4.1-2.6 5.7-0.8 1.6-1.2 4.1-0.9 5.5 0.3 1.4 3.8 8.1 7.7 15 3.9 6.9 7.8 13.4 8.5 14.5 1.1 1.7 1.3-3.4 1.4-31.8v-33.7c-6.2-12.4-8.5-16-9-16-0.5 0-1.1-1-1.3-2.2-0.2-1.3-0.4 4.5-0.5 12.7zm-358.9 9c0 4.4 0.2 6 0.4 3.5 0.2-2.5 0.2-6.1 0-8-0.2-1.9-0.4 0.1-0.4 4.5zm-115.5 25.3c0.5 1.2 0.3 1.5-0.6 1-0.6-0.5-1.2-0.4-1.2 0.2 0 0.6-1.5 2.6-3.3 4.6-1.7 1.9-4.7 4.4-6.5 5.5l-3.2 1.9c1 19 1.7 23.6 2.4 23.9 0.7 0.2 0.5 0.6-0.4 1.2q-1.5 0.9-0.3 0.9c0.7 0 2.6-1.7 4.1-3.7 1.5-2.1 3.5-5.6 4.4-7.8 0.9-2.2 2.1-5.6 2.7-7.5 0.5-1.9 1.5-7 2.1-11.2 0.5-4.3 1-8.5 1-9.3 0-0.8-0.4-1.5-1-1.5-0.5 0-0.6 0.8-0.2 1.8zm-367.6 9.7c0.4 0.5 0.2 1.6-0.5 2.3-0.9 1-0.9 1.6 0 2.5 0.6 0.7 1 1.8 0.7 2.5-0.2 0.6 0.1 1.2 0.8 1.2 0.6 0 0.9 0.3 0.5 0.8-0.3 0.4 0.1 2.6 0.9 5 0.8 2.3 1.9 4.2 2.4 4.2 0.6 0 0.8 0.4 0.5 1-0.3 0.6 0.1 1 0.8 1 0.8 0 1.2-2.2 1.2-7.4 0-4.1-0.1-7.2-0.2-7-0.2 0.2-2-1.3-4-3.4-2.1-2.1-3.5-3.3-3.1-2.7zm483.1 30.5c0 4.1 0.2 5.9 0.4 4 0.2-1.9 0.2-5.3 0-7.5-0.2-2.2-0.4-0.6-0.4 3.5zm359.1 9.8c0.3 7.3 0 13.1-1 18.2-0.9 4.6-1.2 9.6-0.9 13 0.4 3 1.8 10 3.1 15.5 1.3 5.5 2.6 11.9 2.9 14.3 0.3 2.3 0.8 4.2 1.2 4.2 0.5 0 1.7-2.6 2.8-5.7 1.7-5.1 2-8.8 2.2-29.5l0.3-23.8c-6.6-13.2-9.1-17-9.8-17-1 0-1.2 2.5-0.8 10.8zm-497.9 0.2c-0.3 0.6-0.2 1 0.1 1 0.3 0-2.3 2.8-5.8 6.3-3.7 3.6-8.7 7.3-11.8 8.7-3 1.4-5.6 2.8-5.8 3.3-0.1 0.4-0.8 0.5-1.5 0.2-0.6-0.3-2 0-2.9 0.7-1.4 1.1-1.9 3.8-2.5 14.6-0.7 11.4-0.6 13.2 0.7 13.2 0.8 0 4.1-1.5 7.4-3.3 3.2-1.8 8-5.6 10.7-8.4 2.7-2.9 6-7.7 7.4-10.5 1.3-2.9 2.6-6.2 2.7-7.3 0.2-1.1 0.7-2.6 1.1-3.2 0.4-0.7 0.5-2 0.2-2.8-0.3-0.8 0-2.1 0.5-2.7 0.6-0.7 1-3.2 0.8-5.5-0.2-2.4 0.1-4.5 0.7-4.7 0.5-0.2 0.5-0.5-0.2-0.5-0.7-0.1-1.4 0.3-1.8 0.9zm-324.9 7.6c-0.5 0.4-0.9 1.8-0.8 3.1 0.1 1.2 0.6 2.3 1.2 2.3 0.5 0 0.8 0.4 0.5 1-0.3 0.6 0.4 3.4 1.4 6.3 1.1 2.8 3.9 8.1 6.3 11.6 2.5 3.7 6.5 8.1 9.5 10.3 3.2 2.3 5.8 3.5 6.5 3.1q1.3-0.8 0.5 0.5c-0.4 0.7-0.2 1.3 0.5 1.3 0.7 0.1 2.3 0.2 3.5 0.3 2 0.1 2.2-0.3 1.8-2.9-0.2-1.6-1-7.4-1.7-12.9-0.7-5.4-1.8-10-2.3-10.1-0.6-0.2-3.5-1.1-6.5-2-3-0.9-7.3-2.8-9.5-4.3-2.2-1.4-4.2-2.6-4.5-2.6-0.3-0.1-1.6-1.4-3-2.9-1.4-1.6-2.9-2.5-3.4-2.1zm811.7 36.2c-1.1 2-4.3 6.1-6.9 9.1-2.7 2.9-7.8 7.1-11.4 9.2-3.6 2.1-9.4 4.6-13 5.5-4.5 1.1-9.3 1.5-15.8 1.3-5.9-0.3-9.1 0-8.8 0.6 0.2 0.6 1.1 4.6 1.9 9 0.9 4.4 2.1 11.3 2.6 15.3 0.6 3.9 1.7 7.5 2.3 7.9 0.7 0.4 4.2 0.7 7.8 0.8 3.6 0.1 10.3-0.2 15-0.6 4.7-0.4 11.2-1.8 14.5-3 3.3-1.3 8.1-4 10.7-6.1 2.7-2.1 5.9-5.7 7.2-8 1.3-2.4 2.7-5.9 3.1-7.8 0.5-2.4-0.3-8.9-2.5-20.2-1.7-9.3-3.5-16.8-3.9-16.8-0.3 0-1.6 1.7-2.8 3.8zm-531.3 2.8c-2.5 2.6-7.2 6.2-10.5 8.1-3.3 2-9.6 4.4-14 5.5-5.9 1.5-9.6 1.9-14.3 1.4l-6.2-0.6c0.9 18.2 1.6 23.9 2.1 24.5 0.6 0.6 4 1.2 7.7 1.4 4.1 0.2 9-0.3 12.7-1.3 3.3-0.9 7-2.5 8.2-3.6 1.3-1.1 2.4-1.8 2.5-1.5 0.2 0.3 2.8-1.7 5.8-4.4 3.9-3.4 6.3-6.7 8.4-11.2 2.2-4.9 3-8.3 3.3-14.6 0.3-4.6 0.1-8.3-0.4-8.3-0.4 0-2.8 2.1-5.3 4.6zm-240.6 3.7c0.4 2.3 1.3 6.3 2.1 9 0.8 2.6 1.9 4.7 2.5 4.7 0.5 0 0.8 0.4 0.5 1-0.3 0.6 0.2 1.3 1.1 1.8 0.9 0.4 1.4 1.1 1.2 1.5-0.1 0.5 0.7 2.2 1.9 3.8 1.3 1.6 4.3 4.3 6.8 5.9 2.5 1.6 4.5 2.7 4.5 2.3 0-0.5 0.4-0.3 0.8 0.3 0.4 0.7 3.6 2.2 7.2 3.3 3.6 1.2 8.7 2.4 11.5 2.8 2.7 0.3 6.1 0.3 7.5 0 2.5-0.6 2.5-0.7 2.5-12.4v-11.8c-11.6 0.6-17.7 0.2-21-0.5-3.3-0.7-8.3-2.3-11-3.6-2.8-1.4-7.8-4.7-11.3-7.4-3.4-2.8-6.5-5-6.9-5-0.3 0-0.3 1.9 0.1 4.3zm428.7 0.6c-0.1 0.6 0.4 4.6 1 8.9 0.5 4.2 1.6 9.7 2.3 12.2 0.8 2.5 2.4 6.8 3.7 9.5 1.3 2.8 4.4 7 6.9 9.5 2.5 2.5 6.5 5.5 9 6.7 2.5 1.1 7.4 2.8 11 3.8 4.7 1.2 10.3 1.6 20 1.5 10.5-0.1 14.3-0.5 17-1.8 3.2-1.5 3.5-2.1 3.4-5.7 0-2.2-1.3-9.6-2.8-16.5-1.5-6.9-3.2-13.1-3.7-13.7-0.7-1-2-0.8-6.2 0.8-3.4 1.4-8.4 2.3-14.2 2.7-6.3 0.3-11.5 0-17.5-1.2-4.7-1-10.7-3-13.4-4.4-2.7-1.5-7-4.6-9.5-6.9-2.5-2.3-5-3.9-5.5-3.5-0.5 0.4-0.6 0.1-0.3-0.5 0.4-0.7 0.3-1.6-0.2-1.9-0.5-0.3-0.9 0-1 0.5zm145.3 14.1c-0.5 0.5-4.1 1.6-7.9 2.5-4.9 1-13.1 1.5-27 1.5-14.1 0-21.6-0.4-25.5-1.4-3-0.8-5.9-1.1-6.5-0.8-0.6 0.4-0.7 0.2-0.2-0.5 0.4-0.7 0.2-1.3-0.3-1.3-0.6 0-1 0.4-1 1 0 0.6 1.3 6.5 2.9 13.3 1.6 6.7 3.3 14 3.8 16.1 0.5 2.6 1.4 4.1 2.5 4.3 1 0.2 1.8 0.7 1.8 1.3 0 0.6 2.1 1.4 4.7 1.9 2.7 0.5 12.9 0.8 22.8 0.6 9.9-0.3 19.5-0.5 21.2-0.5 1.9 0 3.1-0.4 2.8-1-0.3-0.6 0.2-0.7 1.2-0.4 1 0.3 3.1 0.1 4.8-0.6 1.6-0.7 4.2-2.5 5.7-3.9 2.2-2.1 2.6-3.2 2.2-5.6-0.3-1.6-1.4-7.5-2.5-13-1.1-5.5-2.2-11-2.4-12.2-0.3-1.3-0.9-2.3-1.3-2.3-0.4 0-1.2 0.4-1.8 1zm12.1 1.1c-0.3 0.5 0.6 6.4 2 13.2 1.4 6.7 2.9 13.6 3.2 15.2 0.3 1.6 1.6 3.8 2.7 4.8 1.2 1 2.8 1.8 3.6 1.9 0.8 0 1.9 0.2 2.5 0.2 0.5 0.1 1.6 0.5 2.2 0.9 0.7 0.4 8.4 1 17 1.3 9.9 0.4 18.2 0.2 22.3-0.5 3.6-0.6 8.1-1.9 10-2.9 3.2-1.6 3.5-2.1 3.8-6.7 0.2-2.7-0.6-10.3-1.7-16.7-1.2-6.5-2.3-11.8-2.6-11.8-0.3 0-2.4 0.8-4.8 1.8-3.6 1.4-7.6 1.7-27.7 1.7-19.7 0-24.2-0.3-27.8-1.7-2.4-1-4.4-1.3-4.7-0.7zm73.5-0.1c0 0.5 0.4 1 1 1 0.5 0 0.8 0.4 0.5 1-0.3 0.6 0.2 5.4 1 10.8 0.8 5.3 1.6 11.6 1.7 14 0.2 2.7 1 5 2.3 6.2 1.1 1.1 3.6 2.4 5.5 3 1.9 0.5 10.7 1 19.5 0.9 8.8-0.1 17.1-0.4 18.5-0.8 2-0.5 2.6-1.4 2.8-4.1 0.2-1.9-0.4-7.6-1.3-12.5-0.9-4.9-2.1-10.6-2.6-12.5-0.6-1.9-1.2-3.9-1.4-4.5-0.2-0.6-2.2-0.5-5.7 0.3-2.9 0.7-9.8 1.2-15.3 1.1-5.5-0.1-12.5-0.6-15.5-1.1-3-0.5-6.7-1.6-8.2-2.4-1.6-0.9-2.7-1-2.8-0.4zm-601.3 12.8c0.2 9.5 0.5 11.1 2.8 14.5 1.4 2 4 4.8 5.7 6.1 1.8 1.4 5.8 3.6 8.8 5 3 1.4 8.6 3.1 12.5 3.7 5.2 0.8 8.8 0.8 14 0 3.8-0.6 9.4-2.3 12.2-3.6l5.3-2.5c0-17.8-0.1-23-0.3-23-0.1 0-2.2 1-4.7 2.2-3.5 1.7-6.9 2.2-15.5 2.6-7.2 0.3-12.6 0-15.5-0.9-2.5-0.7-6.3-2-8.5-2.9-2.2-0.9-6.8-3.8-10.3-6.3-3.4-2.6-5.9-4.9-5.5-5.2 0.3-0.3 0.2-0.5-0.3-0.5-0.6 0-0.9 4.3-0.7 10.8zm124.3-6.2c-1.9 1.9-5.8 4.6-8.5 5.9-2.8 1.4-7.5 3.2-10.5 4-3 0.8-8.7 1.5-12.5 1.5-3.9 0-9.3-0.6-12-1.3-2.8-0.8-6.4-2-8.1-2.8l-3.1-1.4-0.4 24c4.3 2.7 8.7 4.1 12.6 4.9 3.8 0.9 9.1 1.6 11.7 1.6 2.7 0 7.7-0.7 11.3-1.5 3.6-0.8 6.5-1.9 6.5-2.5 0-0.6 0.3-0.9 0.7-0.8 0.5 0.1 1.9-0.2 3.3-0.6 1.4-0.5 4.3-2.3 6.5-4 2.2-1.8 5.1-5 6.4-7.2 2.2-3.5 2.4-4.8 2-12.6-0.2-4.8-0.9-9.1-1.4-9.6-0.7-0.7-2.3 0.2-4.5 2.4zm-64.6 181.4c0 7.4 0.1 10.4 0.3 6.5 0.2-3.9 0.2-9.9 0-13.5-0.2-3.6-0.3-0.4-0.3 7zm671 60.1c-0.7 5.2-2.4 13-3.8 17.4-1.5 4.4-5 12.7-7.7 18.5-2.8 5.8-7.7 14.9-11 20.3l-5.9 9.7c0 34.9 0.3 45 0.7 45 0.5 0.1 2.8-2.5 5.2-5.7 2.4-3.2 6.5-9.4 9.2-13.8 2.6-4.4 6.8-13 9.2-19 2.4-6 5-13.5 5.7-16.5 0.7-3 1.7-6.9 2.2-8.5 0.5-1.6 1.2-9.3 1.5-17 0.3-7.9 0.1-17.7-0.5-22.5-0.6-4.7-1.7-10.5-2.4-12.9l-1.3-4.4zm-491.1 3.2c0.5 1.1 0.2 1.9-0.8 2.2-0.8 0.3-1.4 1.1-1.2 1.8 0.1 0.7-0.9 2.4-2.3 3.7-1.3 1.4-3.6 3.9-5 5.6-1.3 1.7-3.1 3.3-3.8 3.5-1 0.3-0.8 1 1 2.6 1.3 1.2 4.1 3.7 6.3 5.6 3.6 3.2 4.2 3.4 6 2.2 1.3-0.9 1.8-2 1.3-2.9-0.5-1-0.4-1.4 0.2-1.1 0.6 0.3 1.3-1.2 1.6-3.2 0.3-2.1 0.2-7.3-0.2-11.6-0.5-4.8-1.4-8.3-2.3-9-1.2-1-1.3-0.8-0.8 0.6zm-345.1 14.2c-0.1 1.4 0.3 2.7 0.8 3 0.6 0.3 0.8 1.2 0.5 2-0.2 0.8 0.1 1.8 0.8 2.2 0.7 0.4 1.8 0.9 2.5 1 0.7 0.2 1-0.1 0.7-0.7-0.2-0.5 0.1-1 0.8-1.1 0.7-0.1 1.6-0.1 2 0 0.4 0.1 0.8 0 0.8-0.1 0-0.2-1.2-1.9-2.8-4-1.5-2-3.1-3.4-3.5-3-0.5 0.4-0.8 0.2-0.8-0.5 0-0.7-0.3-1.3-0.8-1.3-0.4 0-0.9 1.1-1 2.5zm466.4 16c0.3 2.2 1.4 8.3 2.5 13.5 1.1 5.2 2.4 10.9 2.9 12.5 0.5 1.7 1.2 4.6 1.6 6.5 0.4 1.9 2.3 7.3 4.2 12 1.9 4.7 5.4 12.6 7.9 17.5 2.4 5 7.7 14 11.8 20 4 6.1 9.8 14.1 12.9 17.8 3.1 3.7 5.8 6.6 6 6.5 0.3-0.2 0.6-8.4 0.9-18.3 0.4-16.7 0.3-18.1-1.5-20.5-1.1-1.4-3.8-4.5-6.1-7-2.4-2.5-7.8-9-12.2-14.5-4.4-5.5-10.5-13.8-13.6-18.5-3.1-4.7-7-11-8.6-14-1.7-3-4.5-8.2-6.2-11.5-3.1-5.9-3.2-6-2.5-2zm329.8 47.3c-2.1 2.6-8.8 10.3-15 17.2-6.2 6.9-17.1 18.4-24.3 25.5l-13.1 13v45.5c7.4-4.9 15.9-12.7 23.6-20.4 7.7-7.7 16.4-17 19.3-20.6 2.9-3.6 5.8-7.2 6.5-8 0.6-0.8 2.7-4 4.6-7l3.4-5.5c-0.6-31.5-1.2-40.6-1.8-41.4-0.8-1.1-0.7-1.3 0.2-0.8 0.7 0.4 1.2 0.1 1.2-0.8 0-0.8-0.1-1.5-0.4-1.5-0.2 0-2.1 2.2-4.2 4.8zm-450.7 13.7c-0.8 1.7-3.3 4.9-5.4 7.1-2 2.3-6 5.6-8.8 7.3-2.7 1.8-7.7 4-11 5.1-3.3 1-7.5 2-9.5 2.1-1.9 0.2-3.7 0.8-4.1 1.4-0.3 0.6 0.3 3.5 1.4 6.5 1.7 4.7 2 7.9 1.9 21.8l-0.2 16.2c5.1-0.8 9.7-2.6 13.5-4.5 3.9-1.9 8.6-4.7 10.5-6.3 2-1.5 5.2-5.3 7.2-8.3 2-2.9 4.6-8.5 5.8-12.4 1.6-5.2 2.3-10.6 2.7-21 0.4-11.4 0.3-14.3-0.9-16-1.5-1.9-1.6-1.9-3.1 1zm-347.4 16.4c-0.2 7.2 0.2 12.6 1.2 16.6 0.9 3.3 2.9 8.7 4.5 12 1.6 3.3 5.3 8.4 8.2 11.3 2.9 2.9 7.8 6.6 10.8 8.2 3.1 1.6 5.9 3 6.3 3 0.4 0 0.5-5.9 0.1-13.2-0.4-9.2-0.2-15 0.6-18.8 0.7-3 2.1-7.1 3.1-9q1.7-3.5 0.6-3.6c-0.6-0.1-4.3-0.9-8.2-1.8-3.8-0.9-9.4-3-12.5-4.7-3-1.7-7.5-4.8-10-6.8l-4.5-3.8zm526.8 20.4v19.2c16 17.1 26.7 27.4 34.1 34 7.4 6.6 15 13.5 16.9 15.3 1.9 1.7 3.9 3.2 4.3 3.2 0.4 0 0.6-8.9 0.5-19.9l-0.3-19.9c-18.6-16.6-30.7-28.1-39-36.3-8.2-8.2-15.3-14.9-15.7-14.9-0.4 0-0.8 8.7-0.8 19.3zm223-11.5l-6.5 6.7c10.5-10.1 13.5-13.1 13.5-13.2 0-0.2-0.1-0.3-0.3-0.3-0.1 0-3.2 3.1-6.7 6.8zm-17 27.5c-2.5 2.3-7.6 7-11.5 10.3-3.8 3.3-12.6 10.6-19.5 16.1-6.9 5.6-17.4 13.4-23.5 17.5-6 4.1-13.6 8.5-16.7 9.7-3.2 1.1-6.5 2.1-7.3 2.1-1.3 0-1.4 2.9-1.2 21.3l0.2 21.2c4.7-0.4 8.5-1.6 11.5-3 3-1.4 9.1-4.9 13.5-7.7 4.4-2.8 13-8.7 19-13.2 6.1-4.4 17.4-13.1 25.3-19.3 7.8-6.2 14.6-12.1 15-13 0.5-1 0.7-11.2 0.5-22.8-0.2-11.5-0.4-21.5-0.5-22.2 0-0.7-0.2-1.3-0.2-1.3 0 0-2.1 2-4.6 4.3zm-435.5 25.8c-2.7 2.8-7.7 6.6-11 8.4-3.3 1.9-9.4 4.4-13.5 5.6-6.2 1.8-9.1 2.1-17 1.8-7.8-0.4-10.6-1-16-3.5-3.6-1.7-8.1-4.4-10-6.2-1.9-1.7-3.8-2.8-4.3-2.4-0.4 0.4-0.7 8.3-0.7 17.5v16.7c5.1 5.7 9 8.5 12 10.1 3 1.5 7.8 3.1 10.5 3.6 2.8 0.5 7.5 0.8 10.5 0.6 3-0.2 8.4-1.3 12-2.5 3.6-1.1 8.1-3 10-4.1 1.9-1.2 5.7-4.2 8.4-6.6 2.6-2.5 6.3-7.1 8.1-10.1 1.8-3 4.1-8 5-11 0.9-3 1.8-9.4 2.1-14.2 0.3-4.8 0.2-8.8-0.3-8.8-0.5 0-3.1 2.3-5.8 5.1zm-257.4-3.4c-1 0.3-1.1 1.7-0.2 7.6 0.6 4 2 9.9 3.1 13.2 1.1 3.3 4.2 9.2 7 13 2.8 3.9 7 8.5 9.3 10.4 2.3 1.8 6.4 4.4 9 5.7 2.6 1.3 8 3 12 3.6 5.7 1 8.9 1 15.2 0 4.4-0.7 9.8-2 12-3 2.2-1 5.7-3.4 7.8-5.3l3.9-3.4c-0.1-26.7-0.5-34.5-0.9-34.5-0.4 0-2.6 1.4-4.8 3.1-2.2 1.7-5.9 4-8.2 5-2.4 1.1-8.4 2.4-13.5 2.9-5.1 0.6-11.5 0.8-14.3 0.5-2.7-0.4-7.7-1.5-11-2.5-3.3-1.1-8.7-3.8-12-6-3.3-2.3-7.6-5.6-9.5-7.4-1.9-1.8-4.1-3.1-4.9-2.9zm550.1 19.5l0.3 20.2c15.5 12.2 23.8 18.5 28.5 21.8 4.7 3.4 12.2 7.9 16.8 10 4.5 2.1 8.7 3.6 9.2 3.3 0.6-0.3 1-8.3 1-21v-20.5c-5.8-0.9-10.6-2.7-14.5-4.5-3.8-1.9-13.3-8.2-21-14-7.7-5.8-15.1-11.7-16.5-13-1.4-1.3-2.8-2.4-3.3-2.5-0.4 0-0.6 9.1-0.5 20.2zm-463.2 14.3v14.5c5.2 8.9 9.2 13.7 12.1 16.4 3 2.7 8.8 6.4 12.9 8.4 6.7 3.1 8.6 3.6 17 3.9 7.4 0.3 11-0.1 16-1.6 3.6-1.1 9.4-3.9 12.9-6.3 3.6-2.3 8.1-6.1 10-8.4 2-2.2 4.7-6.3 6.1-9 2.1-4 2.5-6.2 2.4-12.9 0-4.4-0.1-10.6-0.2-13.7l-0.2-5.8c-12.6 12.8-17.5 16.7-21 18.4-3 1.4-8.2 3.3-11.5 4.1-3.3 0.8-9.1 1.5-13 1.5-3.8 0-9.6-0.6-12.7-1.5-3.2-0.8-7.7-2.4-10-3.6-2.4-1.2-7.8-5.6-12-9.8-4.3-4.2-7.5-7.9-7.1-8.3 0.4-0.4 0.1-0.8-0.5-0.8-0.8 0-1.2 4.1-1.2 14.5z"/>
		<path id="Path 7" class="s0" d="m-263-410.9c-3.6 0.5-10.8 1.8-16 3-5.2 1.2-14 3.7-19.5 5.6-5.5 1.9-14.1 5.5-19 8-4.9 2.5-11.5 6.1-14.5 8.1-3 1.9-8.2 5.5-11.5 8-3.3 2.5-8.7 7-12 9.9-3.3 3-9.1 8.8-12.8 13.1-3.8 4.2-9.3 11.1-12.2 15.2-2.9 4.1-8 12.7-11.3 19-3.4 6.3-7.2 14.4-8.5 18-1.4 3.6-3.8 12.1-5.5 19-1.7 6.9-3.7 17-4.3 22.5-0.7 6.2-1 15.7-0.6 25 0.4 9 1.5 19 2.7 25 1.2 5.5 3.9 15.4 6.1 22 2.2 6.6 6.5 16.7 9.5 22.5 3.1 5.8 8 14.1 10.9 18.5 2.9 4.4 8.4 11.6 12.2 16 3.8 4.4 10.7 11.3 15.4 15.3 4.6 4.1 13.1 10.5 18.9 14.4 5.8 3.8 14.6 8.9 19.5 11.3 4.9 2.4 13.3 5.7 18.5 7.4 5.2 1.7 13.7 4 18.8 5.1 5 1.1 14.5 2.5 21 3 6.4 0.6 16.2 0.8 21.7 0.5 5.5-0.4 14.1-1.3 19-2.1 4.9-0.8 12.6-2.4 17-3.6 4.4-1.2 12.9-4.1 19-6.5 6.1-2.4 15.1-6.6 20-9.5 4.9-2.8 12.4-7.6 16.5-10.6 4.1-3.1 11.7-9.7 16.9-14.6 5.1-5 12.2-12.7 15.6-17.1 3.4-4.4 8.1-11 10.4-14.8 2.2-3.7 5.8-10.2 7.9-14.5 2.2-4.2 5.1-10.8 6.5-14.7 1.4-3.9 3.7-11.1 5.1-16 1.3-5 3-11.7 3.6-15 0.6-3.3 1.5-11.6 1.9-18.5 0.5-6.9 0.4-17.6-0.1-24-0.5-6.3-1.8-15.8-2.9-21-1.1-5.2-3.5-14.2-5.5-20-1.9-5.8-5.3-14.3-7.5-19-2.2-4.7-6.9-12.8-10.3-18-3.5-5.2-7.8-11.3-9.5-13.5-1.8-2.2-7.1-8-11.9-12.9-4.8-4.8-12.3-11.6-16.7-15.1-4.4-3.4-13.2-9.2-19.5-12.9-6.3-3.6-16-8.4-21.5-10.6-5.5-2.1-14.3-5-19.5-6.4-5.2-1.4-14-3.3-19.5-4.1-5.5-0.8-15.8-1.4-23-1.4-7.1 0.1-15.9 0.5-19.5 1zm361.4 18.6c-3.1 1.5-6.3 4.2-8 6.6l-2.9 4.1v267.1c4.1 7 6.6 10.2 8.2 11.7 1.5 1.4 4.8 3.7 7.3 5l4.5 2.3c250 0.5 252.6 0.5 257.8-1.5 2.8-1.1 6.9-3.4 9.1-5.2 2.1-1.8 4.9-5.6 6.2-8.3l2.4-5 0.1-266c-4.4-7-7.3-9.7-9.6-10.9-4-2.1-4.2-2.1-137-2.3l-133.1-0.2zm38.7 482.8c-3.6 0.7-9 2.3-12 3.5-3 1.2-8.2 3.8-11.5 5.8-3.3 2-8.9 6.6-12.5 10.3-3.6 3.6-8.4 9.9-10.7 14-2.3 4.1-5.3 10.8-6.7 14.9-1.4 4.2-3 11.1-3.6 15.5-0.8 5.8-0.8 10.8 0 18 0.6 5.7 2.4 13.9 4.1 19 1.7 5 5.3 13.3 8 18.5 2.8 5.3 8.6 14.5 13 20.5 4.3 6.1 11.5 15.3 15.9 20.5 4.5 5.3 16.1 17.6 25.8 27.4 9.7 9.9 23.5 23.1 30.7 29.5 7.1 6.4 17 14.8 22 18.8 4.9 3.9 12.6 9.6 17 12.8 4.4 3.1 10.2 6.8 13 8.1 4.3 2 5.6 2.2 9.2 1.4 2.4-0.5 7.1-2.9 10.5-5.2 3.5-2.3 10.6-7.5 15.8-11.6 5.2-4.1 16.2-13.4 24.5-20.7 8.2-7.2 19.3-17.1 24.5-21.9 5.2-4.9 12.2-11.6 15.6-14.9 3.3-3.4 9.6-10 13.9-14.7 4.3-4.6 11.3-12.7 15.4-18 4.2-5.2 10-13.3 12.9-18 3-4.6 7-11.6 8.9-15.5 2-3.8 4.9-10.8 6.4-15.5 1.6-4.6 3.4-12.1 4-16.5 0.7-4.5 0.9-12.1 0.6-17.5-0.4-5.2-1.6-12.8-2.8-17-1.1-4.1-3.9-11.1-6.2-15.5-3.1-5.9-6.3-10.2-12.7-16.5-5.9-5.9-10.7-9.6-15.5-12.2-3.9-2-10.4-4.6-14.5-5.9-6.3-2-9.6-2.4-21-2.3-12.5 0-14.2 0.2-22 3-4.7 1.6-11.4 4.6-15 6.6-3.6 2-10.8 7.2-16 11.6-5.2 4.3-12.2 10.8-15.4 14.3-3.2 3.5-7.7 9.1-9.8 12.4-2.2 3.3-4 6.2-4.1 6.3-0.1 0.2-2.7-3-5.8-7-3.1-4-10-11.7-15.5-17.1-5.4-5.4-12.6-11.9-15.9-14.4-3.3-2.5-10.1-6.5-15-8.9-5-2.4-12.2-5-16-5.9-3.9-0.8-11.1-1.4-16-1.4-5 0.1-11.9 0.7-15.5 1.4zm-387.5 91.4c-1.7 0.4-5 1.9-7.5 3.1-2.5 1.3-6.7 4.4-9.4 6.9-2.7 2.6-6.1 7.1-7.6 10.1-1.6 3.1-3.3 8-3.8 11-0.6 3.5-0.7 7.9-0.1 11.8 0.5 3.4 2 8.4 3.3 11 1.3 2.6 4.1 6.7 6.2 9.1 2.5 2.8 6.6 5.7 11.3 8 6.9 3.4 8.2 3.6 16.5 3.6 7.9 0 9.9-0.3 15.1-2.8 3.5-1.7 8.3-5.2 11.6-8.5 3.8-3.9 6.3-7.6 7.9-11.7 1.9-4.7 2.4-7.9 2.4-15 0.1-8.4-0.2-9.6-3.4-15.9-2.2-4.2-5.4-8.6-8.5-11.4-2.8-2.4-7.5-5.6-10.5-7-3.9-1.7-7.7-2.6-13-2.8-4.1-0.1-8.9 0.1-10.5 0.5z"/>
		<path id="Path 10" class="s1" d="m-255.1-402.9c0.1 0.5-2 0.9-4.7 0.9-2.6-0.1-7.2 0.2-10.2 0.5-3 0.3-5.8 1.1-6.2 1.8-0.4 0.7-1.3 0.9-2.2 0.4-0.9-0.4-1.8-0.3-2.1 0.3-0.3 0.5-1.4 0.8-2.5 0.5-1.1-0.3-2-0.1-2 0.5 0 0.5-0.7 0.8-1.5 0.5-0.8-0.3-1.5-0.1-1.5 0.5 0 0.5-0.7 0.8-1.5 0.5-0.8-0.3-1.7-0.1-2 0.5-0.3 0.5-0.9 0.8-1.5 0.5-0.6-0.3-1-0.1-1 0.5 0 0.5-0.6 0.7-1.3 0.4-0.6-0.3-2 0.2-3 1-0.9 0.9-2.1 1.4-2.7 1.1-0.6-0.3-1.7 0.2-2.5 1-0.8 0.8-1.9 1.3-2.5 1-0.6-0.3-1.6 0.1-2.3 0.7-0.7 0.7-1.9 1.5-2.7 1.6-0.8 0.2-1.7 0.8-2 1.4-0.3 0.5-0.9 1-1.5 1-0.6 0.1-1.8 0.3-2.8 0.5-0.9 0.1-1.7 0.7-1.7 1.3 0 0.5-0.3 0.8-0.8 0.5-0.4-0.2-1.7 0.4-3 1.5-1.2 1.1-2.2 1.7-2.2 1.2 0-0.4-0.5 0.1-1 1-0.6 1-1.3 1.6-1.8 1.3-0.4-0.3-1.9 0.6-3.5 2-1.5 1.4-2.9 2.2-3.2 1.7-0.3-0.4-0.7 0.1-1 1-0.3 1-1.2 1.8-2 1.8-0.8 0-1.3 0.4-1 1 0.3 0.5-0.5 1.3-1.8 1.6-1.2 0.3-3.8 2.1-5.7 3.9-1.9 1.9-7 6.9-11.4 11.2-4.3 4.3-8.8 8.8-10 10.1-1.1 1.2-1.7 2.2-1.1 2.2 0.6 0-0.1 0.9-1.5 2-1.4 1.1-2.1 2.1-1.5 2.1 0.6 0 0.2 0.4-0.8 0.9-0.9 0.6-1.7 1.7-1.7 2.5 0 0.8-0.4 1.5-1 1.5-0.6 0-0.8 0.3-0.6 0.7 0.3 0.5-0.6 2-2 3.5-1.3 1.6-2.4 3-2.4 3.3 0 0.3-0.7 1.2-1.5 2-0.8 0.8-1.3 1.9-1 2.5 0.3 0.5 0.1 1-0.5 1-0.6 0-0.8 0.4-0.5 1 0.3 0.5 0.1 1-0.5 1-0.6 0-0.8 0.4-0.5 1 0.3 0.5 0.1 1-0.5 1-0.6 0-1 0.9-1 2 0 1.1-0.4 2-1 2-0.6 0-0.8 0.4-0.5 1 0.3 0.5 0.2 1-0.3 1-0.4 0-0.8 1-0.9 2.2-0.1 1.3-0.7 2.4-1.3 2.5-0.5 0.2-0.8 0.7-0.5 1.3 0.3 0.5 0.1 1-0.5 1-0.6 0-0.8 0.4-0.5 1 0.3 0.5 0.1 1.2-0.5 1.5-0.6 0.3-0.8 0.9-0.5 1.5 0.3 0.5 0.1 1.2-0.5 1.5-0.6 0.3-0.8 1.2-0.5 2 0.3 0.8 0.1 1.5-0.5 1.5-0.6 0-0.8 0.4-0.5 1 0.3 0.5 0.1 1.2-0.5 1.5-0.6 0.3-0.8 1.2-0.5 2 0.3 0.8 0.1 1.5-0.5 1.5-0.6 0-0.8 0.7-0.5 1.5 0.3 0.8 0.1 1.5-0.5 1.5-0.6 0-0.8 0.9-0.5 2 0.3 1.1 0.1 2.2-0.5 2.5-0.6 0.3-0.8 1.2-0.5 2 0.3 0.8 0.1 1.5-0.5 1.5-0.6 0-0.9 1.1-0.8 2.5 0.2 1.3 0 2.5-0.5 2.5-0.4 0-0.5 0.9-0.2 2 0.3 1.1 0.1 2.6-0.5 3.2-0.5 0.8-1 10.6-1.1 23.3 0 16.1 0.3 22.1 1.1 22.5 0.8 0.3 1 1.5 0.6 3.2-0.3 1.6-0.2 2.8 0.4 2.8 0.6 0 0.8 1.1 0.5 2.5-0.3 1.4-0.1 2.5 0.5 2.5 0.6 0 0.8 0.9 0.5 2-0.3 1.1-0.1 2.2 0.5 2.5 0.6 0.3 0.8 1.2 0.5 2-0.3 0.8-0.1 1.5 0.5 1.5 0.6 0 0.8 0.7 0.5 1.5-0.3 0.8-0.1 1.5 0.5 1.5 0.6 0 0.8 0.9 0.5 2-0.3 1.1-0.1 2 0.5 2 0.6 0 0.8 0.7 0.5 1.5-0.3 0.8-0.1 1.5 0.5 1.5 0.6 0 0.7 0.6 0.4 1.2-0.3 0.7 0.2 2.1 1 3 0.9 1 1.4 2.2 1.1 2.8-0.3 0.5-0.1 1 0.5 1 0.6 0 0.8 0.4 0.5 1-0.3 0.5-0.1 1 0.5 1 0.6 0 0.8 0.7 0.5 1.5-0.3 0.8-0.1 1.5 0.5 1.5 0.6 0 0.8 0.4 0.5 1-0.3 0.5-0.1 1 0.5 1 0.6 0 0.8 0.4 0.5 1-0.3 0.5-0.1 1 0.5 1 0.6 0 1 0.9 1 2 0 1.1 0.4 2 1 2 0.6 0 0.8 0.4 0.5 1-0.3 0.5 0.1 1.6 0.7 2.3 0.7 0.7 1.4 1.9 1.6 2.7 0.2 0.8 0.8 1.6 1.3 1.7 0.5 0.2 0.9 1 0.9 1.8 0 0.8 0.5 1.5 1.2 1.5 0.6 0 0.8 0.3 0.5 0.7-0.4 0.5 0.3 2.1 1.5 3.8 1.2 1.6 2.8 3.3 3.5 3.7 0.7 0.5 1.1 1.2 0.8 1.8-0.3 0.5 0.2 1.2 1 1.5 0.8 0.3 1.5 1.1 1.5 1.7 0.1 0.7 0.8 1.8 1.8 2.5 0.9 0.6 1.7 1.5 1.7 2 0 0.4 4.2 5 9.2 10.1 5.1 5 9.3 9 9.3 8.7 0-0.3 1.5 1.1 3.2 3 1.8 2 3.9 3.5 4.5 3.5 0.7 0 1.5 0.7 1.8 1.5 0.3 0.8 0.8 1.3 1.2 1.1 0.5-0.3 1.5 0.4 2.3 1.4 0.8 1 1.8 1.7 2.2 1.4 0.5-0.2 1 0.3 1.3 1.1 0.3 0.8 0.9 1.3 1.5 1 0.6-0.3 1.2 0.2 1.5 1 0.3 0.8 0.9 1.3 1.5 1 0.6-0.3 1.2 0.3 1.5 1.2 0.3 1 0.7 1.5 1 1 0.3-0.4 1.2 0 2 0.8 0.8 0.8 1.9 1.3 2.5 1 0.6-0.3 1.2 0.2 1.5 1 0.3 0.8 0.8 1.3 1.2 1 0.5-0.2 1.8 0.4 3 1.5 1.5 1.3 2.9 1.7 4 1.3 1.3-0.5 1.6-0.4 1 0.5q-0.7 1.2 1.3 1.2c1.1 0 2.2 0.4 2.5 1 0.3 0.5 1.1 0.7 1.7 0.4 0.7-0.3 2.1 0.2 3 1 1 0.9 2.2 1.4 2.8 1.1 0.6-0.3 1-0.1 1 0.5 0 0.5 0.7 0.8 1.5 0.5 0.8-0.3 1.5-0.1 1.5 0.5 0 0.5 0.3 0.9 0.7 0.8 0.5-0.1 2 0.4 3.5 1 1.6 0.7 3.2 1 3.8 0.7 0.6-0.3 1.2-0.1 1.5 0.5 0.3 0.5 1.2 0.8 2 0.5 0.8-0.3 1.7-0.1 2 0.5 0.3 0.5 1.4 0.8 2.5 0.5 1.1-0.3 2-0.1 2 0.5 0 0.5 1.1 0.8 2.5 0.5 1.4-0.3 2.7-0.1 3 0.5 0.3 0.6 1.9 0.7 3.7 0.4 1.8-0.4 3.6-0.2 4 0.2 0.3 0.5 8.2 0.9 17.5 0.8 9.2-0.1 17.4-0.4 18-0.8 0.7-0.3 2.8-0.4 4.5-0.1 1.8 0.3 3.9 0.1 4.5-0.5 0.7-0.5 2.2-0.8 3.3-0.5 1.1 0.3 2 0 2-0.5 0-0.6 1.1-0.8 2.5-0.5 1.4 0.3 2.5 0 2.5-0.5 0-0.6 0.9-0.8 2-0.5 1.1 0.3 2.2 0 2.5-0.5 0.3-0.6 1.2-0.8 2-0.5 0.8 0.3 1.7 0 2-0.5 0.3-0.6 1.2-0.8 2-0.5 0.8 0.3 1.5 0 1.5-0.5 0-0.6 0.7-0.8 1.5-0.5 0.8 0.3 1.5 0 1.5-0.5 0-0.6 0.3-0.9 0.7-0.9 0.5 0.1 1.1 0.1 1.5 0 0.5 0 1.1-0.2 1.5-0.4 0.5-0.1 1.8-0.8 3-1.5 1.3-0.7 2.7-1 3.3-0.7 0.6 0.3 1 0 1-0.5 0-0.6 0.9-1 2-1 1.1 0 2-0.5 2-1 0-0.6 0.7-0.8 1.5-0.5 0.8 0.3 1.5 0 1.5-0.5 0-0.6 0.4-0.8 1-0.5 0.6 0.3 1-0.1 1-0.8 0-0.6 0.2-0.9 0.5-0.5 0.3 0.5 1.5-0.1 2.7-1.2 1.3-1.1 2.6-1.7 3-1.5 0.5 0.3 0.8 0 0.8-0.5 0-0.6 0.4-0.8 1-0.5 0.6 0.3 1 0 1-0.5 0-0.6 0.4-0.8 1-0.5 0.6 0.3 1.2-0.2 1.5-1 0.3-0.8 0.9-1.3 1.5-1 0.6 0.3 1 0 1-0.5 0-0.6 1.1-1.7 2.5-2.5 1.7-1 2.3-1.1 1.9-0.3-0.3 0.7 0.2 0.4 1-0.7 0.9-1.1 1.6-1.6 1.6-1 0 0.5 1.2-0.4 2.6-2 1.4-1.6 2.3-2.3 1.9-1.5-0.4 0.8 0.3 0.5 1.4-0.8 1.2-1.2 2.4-2.2 2.8-2.2 0.5 0 1.7-1.1 2.8-2.5 1.1-1.4 2.4-2.6 3-2.5 0.6 0 3.8-2.8 7.2-6.2 3.5-3.5 6.3-6.8 6.3-7.3 0-0.6 1.4-2.3 3.2-3.8 1.8-1.6 2.6-2.6 1.8-2.2-0.8 0.4-0.6-0.1 0.5-1 1.1-0.9 1.9-2.1 1.7-2.6-0.1-0.5 0.7-1.4 1.8-1.9 1.1-0.6 2-1.7 2-2.5 0-0.8 0.4-1.5 1-1.5 0.6 0 1-0.5 1-1 0-0.6 0.7-1.8 1.5-2.8 0.8-0.9 1.6-2.2 1.7-2.7 0.1-0.6 1-1.9 2-3 0.9-1.1 1.5-2.3 1.3-2.8-0.3-0.4-0.1-0.7 0.5-0.7 0.6 0 1.3-1 1.7-2.3 0.4-1.2 0.6-2.5 0.5-3-0.1-0.4 0.2-0.7 0.8-0.7 0.6 0 0.8-0.5 0.5-1-0.3-0.6-0.3-1.7 0-2.5 0.3-0.8 0.9-1.3 1.5-1 0.6 0.3 1-0.6 1-2 0-1.4 0.4-2.5 1-2.5 0.6 0 0.7-0.6 0.4-1.3-0.3-0.6 0.1-1.9 0.9-2.7 0.7-0.8 1.2-2.1 1-2.8-0.2-0.6 0.1-1.2 0.7-1.2 0.6 0 0.9-0.3 0.9-0.8-0.1-0.4-0.1-0.9 0.1-1.2 0.1-0.3 0.4-1.6 0.6-3 0.3-1.4 0.9-3 1.4-3.5 0.5-0.6 0.7-1.6 0.4-2.3-0.2-0.6 0-1.2 0.6-1.2 0.6 0 0.8-0.7 0.5-1.5-0.3-0.8-0.1-1.5 0.5-1.5 0.6 0 0.8-1.1 0.5-2.5-0.3-1.4-0.1-2.5 0.5-2.5 0.6 0 0.8-0.7 0.5-1.5-0.3-0.8-0.1-1.7 0.5-2 0.6-0.3 0.7-1.7 0.2-3.5-0.4-1.9-0.3-3 0.3-3 0.6 0 1.1-1.2 1.2-2.8 0.1-1.5 0.4-4.1 0.7-5.7 0.2-1.6 0.8-6.4 1.2-10.5 0.4-4.1 0.3-8.4-0.1-9.5-0.4-1.1-0.9-5.1-1.1-9-0.2-3.9-0.5-8.1-0.6-9.5-0.2-1.4-0.7-3.1-1.1-3.8-0.4-0.6-0.5-1.9-0.2-2.7 0.3-0.8 0.1-1.5-0.5-1.5-0.6 0-0.8-1.1-0.5-2.5 0.3-1.4 0.1-2.5-0.5-2.5-0.6 0-0.8-0.8-0.5-1.8 0.3-0.9 0.1-2.3-0.5-3-0.5-0.6-0.8-1.7-0.5-2.2 0.3-0.6 0.1-1-0.5-1-0.6 0-0.8-0.7-0.5-1.5 0.3-0.8 0.1-1.7-0.5-2-0.6-0.3-0.8-1.2-0.5-2 0.3-0.8 0.1-1.5-0.5-1.5-0.6 0-0.8-0.7-0.5-1.5 0.3-0.8 0.1-1.5-0.5-1.5-0.6 0-0.8-0.5-0.5-1 0.3-0.6 0.1-1.2-0.5-1.5-0.6-0.3-0.8-1-0.5-1.5 0.3-0.6 0.1-1-0.5-1-0.6 0-0.8-0.7-0.5-1.5 0.3-0.8 0.1-1.5-0.5-1.5-0.6 0-0.8-0.5-0.5-1 0.3-0.6 0.1-1.2-0.5-1.5-0.6-0.3-1-1.4-1-2.5 0-1.1-0.4-2-1-2-0.6 0-0.8-0.5-0.5-1 0.3-0.6-0.2-1.7-1-2.5-0.8-0.8-1.2-1.7-0.8-2 0.3-0.3 0-0.5-0.7-0.5-0.7 0-1-0.3-0.7-0.8 0.4-0.4-0.1-1.9-1.1-3.5-0.9-1.5-2-2.7-2.5-2.7-0.4 0-0.5-0.5-0.2-1 0.3-0.6 0.1-1-0.5-1-0.6 0-1-0.6-1-1.3-0.1-0.6-0.8-1.8-1.8-2.5q-1.7-1.4-0.2-0.7c0.8 0.3 0.5-0.2-0.8-1.2-1.3-1-2.3-2.4-2.2-3.1 0-0.6-1.1-2.2-2.5-3.5-1.3-1.2-2.2-2.5-2-3 0.3-0.4-0.6-1.4-2-2.2-1.4-0.8-2.5-2.1-2.5-2.8-0.1-0.6-3.8-4.8-8.2-9.2-4.5-4.4-8.6-7.9-9-7.8-0.4 0.2-1.5-0.8-2.3-2.2-0.8-1.4-2.1-2.5-2.8-2.5-0.6 0-2.6-1.4-4.2-3-1.6-1.6-3.3-2.7-3.8-2.5-0.4 0.3-0.9-0.2-1.2-1-0.3-0.8-0.9-1.3-1.5-1-0.6 0.3-1.4-0.3-2-1.3-0.5-0.9-0.9-1.3-0.9-0.7-0.1 0.5-1 0-2.1-1.3-1.1-1.2-2.4-2-3-1.7-0.6 0.3-1 0-1-0.5 0-0.6-0.7-1-1.5-1-0.8 0-1.5-0.5-1.5-1 0-0.6-0.9-1-2-1-1.1 0-2-0.5-2-1 0-0.6-0.7-0.8-1.5-0.5-0.8 0.3-1.7-0.1-2-0.8-0.2-0.6-1.1-1.5-2-2-0.9-0.4-1.3-0.3-1 0.3 0.3 0.5-0.2 0.8-1 0.5-0.8-0.3-1.5-1-1.5-1.5 0-0.6-0.4-0.8-1-0.5-0.6 0.3-1 0-1-0.5 0-0.6-0.4-0.8-1-0.5-0.6 0.3-1 0-1-0.5 0-0.6-0.9-0.7-2.3-0.3-1.6 0.5-2 0.4-1.5-0.5q0.8-1.2-0.7-0.7c-0.8 0.3-1.5 0-1.5-0.5 0-0.6-0.3-0.9-0.8-0.8-0.4 0.1-1.6-0.3-2.7-0.9-1.1-0.6-3.1-1.3-4.5-1.5-1.4-0.2-3.1-0.7-3.8-1.1-0.6-0.4-1.6-0.5-2.2-0.2-0.6 0.3-1.2 0-1.5-0.5-0.3-0.6-1.3-0.8-2.3-0.5-0.9 0.3-1.9 0.1-2.2-0.4-0.3-0.5-3-1.3-6-1.6-3-0.4-7.6-0.7-10.2-0.8-2.5-0.1-4.5-0.4-4.3-0.7 0.2-0.3-5.3-0.6-12.2-0.7-7-0.1-12.4 0.3-12.4 0.8zm360.6 16.9c-0.3 0.6-1.1 0.9-1.8 0.9-0.6-0.1-1.8-0.1-2.5 0-0.6 0-1 0.5-0.7 1.1 0.3 0.5-0.4 1.2-1.5 1.5-1.1 0.3-1.8 0.9-1.5 1.5 0.3 0.5 0 1-0.5 1-0.5 0-0.9 0.3-0.9 0.7 0.1 0.5 0.1 1.2 0 1.8-0.1 0.5-0.2 59.3-0.2 130.5 0 71.2 0.1 129.7 0.2 130 0.1 0.3 0.1 0.8 0 1.2 0 0.5 0.4 0.8 0.9 0.8 0.5 0 0.8 0.4 0.5 1-0.3 0.5 0 1 0.5 1 0.5 0 1 0.4 1 1 0 0.5 0.8 1.9 1.7 3 1 1 2.1 1.7 2.5 1.5 0.5-0.3 1 0.2 1.3 1 0.3 0.8 1 1.3 1.5 1 0.5-0.3 1-0.1 1 0.5 0 0.5 0.5 0.8 1 0.5 0.5-0.3 1.2-0.2 1.4 0.2 0.2 0.5 56.4 0.8 124.8 0.8 68.3 0 125.2-0.3 126.3-0.7 1.1-0.3 2.1-0.7 2.2-0.7 0.2-0.1 0.8-0.2 1.4-0.4 0.5-0.1 3-2.1 5.5-4.5 2.4-2.3 4.2-4.7 3.9-5.2-0.3-0.6-0.2-1 0.2-1 0.5 0 0.9-59.4 1-132 0.2-100 0-132-0.9-132-0.6 0-0.8-0.3-0.5-0.8 0.4-0.4-0.1-1.5-1-2.5-1-1-2.5-1.7-3.3-1.7-0.8 0-1.7-0.2-2-0.5-0.3-0.3-59.1-0.7-130.7-1-82.8-0.3-130.5-0.1-130.8 0.5zm34.5 484.1c-2.5 0.5-5.2 1.2-6 1.5-0.8 0.4-2.3 0.9-3.3 1.1-0.9 0.1-4.7 1.8-8.5 3.7-3.7 1.8-7 4-7.5 5-0.4 0.9-1.4 1.6-2.2 1.6-0.9 0-3.9 2.6-6.8 5.8-2.9 3.1-6.5 8-8.1 10.7-1.6 2.8-4 7.8-5.3 11.2-1.2 3.5-2.6 8.2-3 10.5-0.4 2.4-0.6 8.8-0.6 14.3 0.1 5.5 0.2 11.1 0.3 12.5 0.1 1.4 0.9 5 1.7 8 0.8 3 2 6.1 2.6 6.8 0.7 0.7 0.9 1.3 0.4 1.2-0.4 0 0 1.1 0.8 2.5 0.8 1.4 1.3 2.5 1 2.5-0.3 0 1.5 4 4 9 2.5 5 5 9 5.5 9 0.5 0 1 0.6 1 1.2 0 0.7 0.9 2.3 2 3.5 1.1 1.3 2 2.8 2 3.3 0 0.5 0.5 1 1 1 0.5 0 1 0.5 1 1 0 0.5 2.1 3.8 4.7 7.2 2.6 3.5 8.6 10.8 13.4 16.3 4.7 5.5 13 14.7 18.5 20.4 5.4 5.7 15.3 15.4 22 21.5 6.6 6.1 14.7 13.4 18 16.2 3.2 2.9 8.4 7.3 11.4 9.8 3 2.5 6 4.6 6.5 4.6 0.5 0 1.6 0.9 2.2 2 0.7 1.1 1.6 1.8 2 1.5 0.5-0.3 1.4 0.4 2 1.5 0.7 1.1 2 2 2.8 2 0.8 0 1.7 0.7 2 1.5 0.3 0.8 1.2 1.5 2 1.5 0.8 0 1.7 0.8 2 1.7 0.3 1 0.7 1.5 1 1 0.3-0.4 1.7 0.4 3.2 1.8 1.6 1.4 3.4 2.6 4 2.5 0.7 0 1.3 0.5 1.3 1 0 0.5 0.5 0.8 1 0.5 0.5-0.3 1 0 1 0.5 0 0.5 1.2 1 2.7 1 1.6 0 4.9-1.4 7.5-3 2.7-1.7 4.8-3.5 4.8-4 0-0.5 0.6-1 1.2-1 0.7 0 4.1-2.2 7.5-5 3.5-2.7 7.1-5.7 8-6.6 1-0.8 4.2-3.3 7-5.5 2.9-2.1 5.3-4.4 5.3-4.9 0-0.5 0.6-1 1.2-1 0.7 0 2.6-1.3 4.3-2.9 1.6-1.6 8.6-8 15.5-14.2 6.9-6.2 17.9-16.7 24.4-23.3 6.6-6.7 15.9-16.6 20.8-22.1 4.9-5.5 12.2-14.7 16.2-20.5 4.1-5.8 8.7-13 10.2-16 1.6-3 3.1-5.7 3.4-6 0.3-0.3 1.8-3.2 3.2-6.5 1.5-3.3 3.7-10 4.8-15 1.2-5 2.3-12.4 2.5-16.5 0.2-4.1-0.1-10.4-0.6-14-0.6-3.6-1.3-7-1.7-7.5-0.3-0.5-0.8-1.9-0.9-3-0.2-1.1-1.1-3.8-2-6-1-2.2-2-4.2-2.3-4.5-0.4-0.3-1.2-2.1-2-4-0.8-1.9-5.1-7.2-9.7-11.8-4.6-4.5-9-8.2-9.8-8.2-0.8 0-1.5-0.3-1.5-0.8 0-0.4-2.6-1.9-5.7-3.3-3.2-1.5-7.6-3.3-9.8-4-2.6-0.9-8.8-1.4-18-1.4-7.7 0-14.9 0.4-16 0.9-1.1 0.5-2.9 1.1-4 1.3-1.1 0.2-5.1 1.8-8.8 3.6-3.7 1.8-7 3.8-7.2 4.4-0.3 0.7-1 1.1-1.5 0.8-0.5-0.3-1-0.2-1 0.2 0 0.5-1.2 1.3-2.7 2-1.6 0.6-7.3 5.6-12.8 11-5.5 5.4-11.5 11.6-13.3 13.8-1.8 2.2-3.2 4.6-3.2 5.2 0 0.7-0.7 1.5-1.5 1.8-0.8 0.3-1.5 1-1.5 1.5 0 0.5-0.8 2-1.8 3.2-0.9 1.2-2.7 3.2-3.9 4.5-1.2 1.3-3 2.3-4 2.3-1-0.1-3.5-2-5.5-4.3-2.1-2.3-4.7-5.2-5.8-6.5-1.1-1.2-1.7-2.4-1.3-2.7 0.3-0.3 0.1-0.5-0.5-0.5-0.7 0-1.2-0.7-1.2-1.5 0-0.8-4.4-5.9-9.8-11.3-5.3-5.4-11.7-11.5-14.2-13.5-2.5-2-5.1-3.7-5.8-3.7-0.6 0-1.2-0.5-1.2-1 0-0.5-4.2-3-9.3-5.5-5-2.5-9.8-4.3-10.5-4-0.6 0.3-1.3 0-1.5-0.5-0.1-0.6-2.3-1.2-4.9-1.3-2.5-0.1-5-0.6-5.5-1-0.4-0.4-3.9-0.7-7.8-0.6-3.9 0.1-9 0.5-11.5 1zm-385.5 91.9c-0.3 0.5-1.9 0.9-3.6 0.8-1.8 0-3.3 0.4-3.5 1-0.2 0.7-1.1 1.2-1.9 1.2-0.8 0-1.5 0.4-1.5 1 0 0.5-0.5 0.8-1 0.5-0.6-0.3-1.2 0.2-1.5 1-0.3 0.8-1.2 1.5-2 1.5-0.8 0-1.8 0.8-2.2 1.7-0.3 1-1.2 2.1-2 2.5-0.7 0.5-1.3 1.5-1.3 2.3 0 0.8-0.5 1.5-1 1.5-0.6 0-1 0.8-1 1.7 0 1-0.5 2.4-1.2 3.1-0.8 0.8-1.3 4.1-1.3 8.7 0 4.1 0.3 7.5 0.7 7.5 0.5 0 0.6 0.4 0.3 1-0.3 0.5 0.4 2.8 1.5 5 1.1 2.2 3.2 5.2 4.6 6.7 1.5 1.6 3 2.7 3.5 2.5 0.5-0.1 1.3 0.7 1.9 1.8 0.5 1.1 1.4 1.8 2 1.5 0.5-0.3 1-0.1 1 0.5 0 0.5 0.8 1.2 1.7 1.5 1 0.2 3.4 0.8 5.3 1.2 1.9 0.4 5.7 0.6 8.5 0.5 2.7-0.2 5.6-0.8 6.3-1.5 0.7-0.7 1.3-0.9 1.2-0.5 0 0.5 1.5 0 3.2-1 1.8-1 5.2-3.7 7.5-6 2.4-2.3 4-4.4 3.5-4.7-0.4-0.3 0-0.5 0.8-0.5 0.8 0 1.2-0.3 0.7-0.7-0.4-0.5 0-1.5 0.8-2.3 0.8-0.8 1.7-2.9 2-4.5 0.2-1.7 0.8-4.4 1.1-6 0.4-1.7 0.1-5.4-0.5-8.3-0.6-2.8-1.6-5.2-2.1-5.2-0.6 0-0.8-0.5-0.5-1 0.3-0.6-2.2-3.7-5.5-7-3.3-3.3-6.5-5.8-7-5.5-0.6 0.3-1 0-1-0.5 0-0.6-1-1.3-2.3-1.7-1.2-0.3-3.7-0.6-5.5-0.5-1.7 0.1-3.4-0.3-3.7-0.8-0.3-0.6-1.4-1-2.5-1-1 0-2.1 0.4-2.5 1z"/>
	</g>
</svg>